<svg width="34" height="30" viewBox="0 0 34 30" fill="none" xmlns="http://www.w3.org/2000/svg">
<path fill-rule="evenodd" clip-rule="evenodd" d="M27.4826 9.76563L30.5515 9.14881C30.8811 9.08268 31.2041 9.30049 31.27 9.63262L33.6549 21.7086C33.7204 22.0411 33.5045 22.3669 33.1752 22.4334L30.1063 23.0502C29.7767 23.1164 29.4537 22.8985 29.3878 22.5664L27.003 10.4904C26.937 10.1579 27.153 9.83213 27.4826 9.76563ZM11.4114 14.3116L12.5914 19.7659C14.8088 18.9761 14.9681 17.1536 15.1399 15.1825C15.2081 14.4009 15.3203 13.7314 16.2751 13.6608C17.304 13.585 19.0399 14.7215 19.6962 15.4605L27.2241 23.1645L28.2089 22.1711L26.1444 11.717C25.3959 11.8713 24.6089 11.931 23.7781 11.8361C22.3281 11.6706 20.7629 11.0385 19.0644 9.62478C18.2055 8.91007 17.0525 8.79575 16.1807 9.53026L11.8828 13.1501C11.5258 13.4501 11.3106 13.8469 11.4114 14.3116ZM8.02059 10.882H12.8932L11.1906 12.3158C10.5332 12.8695 10.1695 13.675 10.3569 14.541L11.6606 20.5673C11.7236 20.8609 12.0106 21.0477 12.3017 20.9842C15.5066 20.2848 15.9655 18.14 16.2155 15.2755C16.2307 15.1014 16.1788 14.7577 16.351 14.745C16.5073 14.7334 16.721 14.779 16.9833 14.8847C17.514 15.0984 18.1833 15.5371 18.9288 16.2219L26.777 24.2536C26.8818 24.486 26.9159 24.7453 26.8781 24.9963C26.7211 26.048 25.437 26.4732 24.6903 25.7204L19.2366 20.2198C19.0259 20.0072 18.684 20.0072 18.4733 20.2198C18.2625 20.4324 18.2625 20.7772 18.4733 20.9898L23.9263 26.4904C24.4277 26.9962 24.4277 27.8271 23.9263 28.333C23.4222 28.8415 22.604 28.8415 22.0996 28.333L16.3377 22.5208C16.127 22.3082 15.7851 22.3082 15.5744 22.5208C15.3636 22.7334 15.3636 23.0782 15.5744 23.2908L19.9236 27.6781C20.4251 28.1839 20.4251 29.0148 19.9236 29.5207C19.4196 30.0291 18.601 30.0291 18.097 29.5207L13.4388 24.8219C13.228 24.6093 12.8862 24.6093 12.6754 24.8219C12.4647 25.0344 12.4647 25.3793 12.6754 25.5919L14.8406 27.7759C15.0929 28.0304 15.2188 28.364 15.2188 28.6972C15.2188 29.4183 14.6421 30 13.9273 30C13.5843 30 13.2566 29.8633 13.014 29.6185L5.76428 22.3056L8.02059 10.882ZM17.5396 4.35697C17.5396 4.65772 17.2977 4.90131 16.9999 4.90131C16.7018 4.90131 16.4603 4.65734 16.4603 4.35697V0.54434C16.4603 0.243589 16.7021 0 16.9999 0C17.2981 0 17.5396 0.243963 17.5396 0.54434V4.35697ZM22.5463 7.89985C22.2888 8.05004 21.9592 7.96149 21.8103 7.70221C21.6614 7.44256 21.7492 7.11005 22.0066 6.95986L25.28 5.05336C25.5374 4.90317 25.867 4.99172 26.0159 5.25137C26.1648 5.51103 26.077 5.84353 25.82 5.99372L22.5463 7.89985ZM20.5122 5.4505L22.4022 2.14859C22.55 1.88894 22.4614 1.55755 22.204 1.40849C21.9466 1.25942 21.6181 1.34871 21.4703 1.60836L19.5803 4.91027C19.4325 5.16993 19.521 5.50131 19.7785 5.65038C20.0359 5.79982 20.3644 5.71016 20.5122 5.4505ZM11.9936 6.95986C12.251 7.11005 12.3388 7.44256 12.1895 7.70221C12.0406 7.96187 11.711 8.05041 11.4536 7.89985L8.18023 5.99335C7.92282 5.84316 7.83504 5.51065 7.98393 5.251C8.13282 4.99134 8.46245 4.9028 8.71986 5.05299L11.9936 6.95986ZM14.4195 4.91027L12.5295 1.60836C12.3817 1.34871 12.0532 1.25942 11.7958 1.40849C11.5384 1.55755 11.4499 1.88894 11.5977 2.14859L13.4877 5.4505C13.6354 5.71016 13.964 5.79945 14.2214 5.65038C14.4788 5.50131 14.5677 5.16993 14.4195 4.91027ZM6.51725 9.76563L3.44834 9.14881C3.11871 9.08268 2.79537 9.30049 2.72982 9.63262L0.344983 21.709C0.279427 22.0415 0.495355 22.3673 0.824616 22.4338L3.89353 23.0506C4.22316 23.1167 4.54612 22.8989 4.61205 22.5668L6.99688 10.4908C7.06281 10.1579 6.84688 9.83213 6.51725 9.76563Z" fill="#0795FE"/>
</svg>
