<svg width="823" height="282" viewBox="0 0 823 282" fill="none" xmlns="http://www.w3.org/2000/svg">
<rect x="1" y="1" width="821" height="280" stroke="#E9E9E9"/>
<rect width="821" height="50" transform="translate(1 1)" fill="#092A49"/>
<path d="M59.2518 33.192C58.4944 33.192 57.7904 33.0533 57.1398 32.776C56.4998 32.4987 55.9451 32.1147 55.4758 31.624C55.0171 31.1227 54.6811 30.5413 54.4678 29.88L56.2758 29.096C56.5638 29.7787 56.9798 30.3173 57.5238 30.712C58.0678 31.096 58.6811 31.288 59.3638 31.288C59.7478 31.288 60.0784 31.2293 60.3558 31.112C60.6438 30.984 60.8624 30.8133 61.0118 30.6C61.1718 30.3867 61.2518 30.1307 61.2518 29.832C61.2518 29.48 61.1451 29.192 60.9318 28.968C60.7291 28.7333 60.4198 28.552 60.0038 28.424L57.7158 27.688C56.7878 27.4 56.0891 26.968 55.6198 26.392C55.1504 25.816 54.9158 25.1387 54.9158 24.36C54.9158 23.6773 55.0811 23.0747 55.4118 22.552C55.7531 22.0293 56.2224 21.624 56.8198 21.336C57.4278 21.0373 58.1211 20.888 58.8998 20.888C59.6144 20.888 60.2704 21.016 60.8678 21.272C61.4651 21.5173 61.9771 21.864 62.4038 22.312C62.8411 22.7493 63.1664 23.2667 63.3798 23.864L61.5878 24.664C61.3531 24.0667 61.0011 23.608 60.5318 23.288C60.0624 22.9573 59.5184 22.792 58.8998 22.792C58.5371 22.792 58.2171 22.856 57.9398 22.984C57.6624 23.1013 57.4438 23.272 57.2838 23.496C57.1344 23.7093 57.0598 23.9653 57.0598 24.264C57.0598 24.5947 57.1664 24.888 57.3798 25.144C57.5931 25.3893 57.9184 25.5813 58.3558 25.72L60.5478 26.408C61.4971 26.7173 62.2064 27.144 62.6758 27.688C63.1558 28.232 63.3958 28.904 63.3958 29.704C63.3958 30.3867 63.2198 30.9893 62.8678 31.512C62.5158 32.0347 62.0304 32.4453 61.4118 32.744C60.7931 33.0427 60.0731 33.192 59.2518 33.192ZM66.1711 33V30.76H68.2831V33H66.1711ZM71.402 33V21.08H73.098L79.658 29.912L78.778 30.088V21.08H80.954V33H79.242L72.778 24.104L73.578 23.928V33H71.402ZM84.0774 33V30.76H86.1894V33H84.0774Z" fill="white"/>
<path d="M212.277 33V21.08H214.453V31.08H219.557V33H212.277ZM224.917 33.192C224.021 33.192 223.237 32.9893 222.565 32.584C221.893 32.1787 221.37 31.6293 220.997 30.936C220.623 30.2427 220.437 29.4747 220.437 28.632C220.437 27.7573 220.623 26.984 220.997 26.312C221.381 25.6293 221.898 25.0907 222.549 24.696C223.21 24.3013 223.946 24.104 224.757 24.104C225.439 24.104 226.037 24.216 226.549 24.44C227.071 24.664 227.514 24.9733 227.877 25.368C228.239 25.7627 228.517 26.216 228.709 26.728C228.901 27.2293 228.997 27.7733 228.997 28.36C228.997 28.5093 228.986 28.664 228.965 28.824C228.954 28.984 228.927 29.1227 228.885 29.24H222.164V27.64H227.701L226.709 28.392C226.805 27.9013 226.778 27.464 226.629 27.08C226.49 26.696 226.255 26.392 225.925 26.168C225.605 25.944 225.215 25.832 224.757 25.832C224.319 25.832 223.93 25.944 223.589 26.168C223.247 26.3813 222.986 26.7013 222.805 27.128C222.634 27.544 222.57 28.0507 222.613 28.648C222.57 29.1813 222.639 29.656 222.821 30.072C223.013 30.4773 223.29 30.792 223.653 31.016C224.026 31.24 224.453 31.352 224.933 31.352C225.413 31.352 225.818 31.2507 226.149 31.048C226.49 30.8453 226.757 30.5733 226.949 30.232L228.645 31.064C228.474 31.48 228.207 31.848 227.845 32.168C227.482 32.488 227.05 32.7387 226.549 32.92C226.058 33.1013 225.514 33.192 224.917 33.192ZM233.053 33L229.629 24.296H231.917L234.397 31.144H233.549L236.045 24.296H238.333L234.909 33H233.053ZM243.463 33.192C242.567 33.192 241.783 32.9893 241.111 32.584C240.439 32.1787 239.917 31.6293 239.543 30.936C239.17 30.2427 238.983 29.4747 238.983 28.632C238.983 27.7573 239.17 26.984 239.543 26.312C239.927 25.6293 240.445 25.0907 241.095 24.696C241.757 24.3013 242.493 24.104 243.303 24.104C243.986 24.104 244.583 24.216 245.095 24.44C245.618 24.664 246.061 24.9733 246.423 25.368C246.786 25.7627 247.063 26.216 247.255 26.728C247.447 27.2293 247.543 27.7733 247.543 28.36C247.543 28.5093 247.533 28.664 247.511 28.824C247.501 28.984 247.474 29.1227 247.431 29.24H240.711V27.64H246.247L245.255 28.392C245.351 27.9013 245.325 27.464 245.175 27.08C245.037 26.696 244.802 26.392 244.471 26.168C244.151 25.944 243.762 25.832 243.303 25.832C242.866 25.832 242.477 25.944 242.135 26.168C241.794 26.3813 241.533 26.7013 241.351 27.128C241.181 27.544 241.117 28.0507 241.159 28.648C241.117 29.1813 241.186 29.656 241.367 30.072C241.559 30.4773 241.837 30.792 242.199 31.016C242.573 31.24 242.999 31.352 243.479 31.352C243.959 31.352 244.365 31.2507 244.695 31.048C245.037 30.8453 245.303 30.5733 245.495 30.232L247.191 31.064C247.021 31.48 246.754 31.848 246.391 32.168C246.029 32.488 245.597 32.7387 245.095 32.92C244.605 33.1013 244.061 33.192 243.463 33.192ZM249.132 33V20.888H251.228V33H249.132ZM260.263 33.192C259.41 33.192 258.631 32.9947 257.927 32.6C257.234 32.2053 256.679 31.6667 256.263 30.984C255.858 30.3013 255.655 29.5227 255.655 28.648C255.655 27.7733 255.858 26.9947 256.263 26.312C256.679 25.6293 257.234 25.0907 257.927 24.696C258.621 24.3013 259.399 24.104 260.263 24.104C261.117 24.104 261.89 24.3013 262.583 24.696C263.277 25.0907 263.826 25.6293 264.231 26.312C264.647 26.984 264.855 27.7627 264.855 28.648C264.855 29.5227 264.647 30.3013 264.231 30.984C263.815 31.6667 263.261 32.2053 262.567 32.6C261.874 32.9947 261.106 33.192 260.263 33.192ZM260.263 31.272C260.733 31.272 261.143 31.16 261.495 30.936C261.858 30.712 262.141 30.4027 262.343 30.008C262.557 29.6027 262.663 29.1493 262.663 28.648C262.663 28.136 262.557 27.688 262.343 27.304C262.141 26.9093 261.858 26.6 261.495 26.376C261.143 26.1413 260.733 26.024 260.263 26.024C259.783 26.024 259.362 26.1413 258.999 26.376C258.637 26.6 258.349 26.9093 258.135 27.304C257.933 27.688 257.831 28.136 257.831 28.648C257.831 29.1493 257.933 29.6027 258.135 30.008C258.349 30.4027 258.637 30.712 258.999 30.936C259.362 31.16 259.783 31.272 260.263 31.272ZM267.265 33V26.168H265.729V24.296H267.265V24.008C267.265 23.3467 267.399 22.7867 267.665 22.328C267.943 21.8587 268.327 21.5013 268.817 21.256C269.308 21.0107 269.889 20.888 270.561 20.888C270.689 20.888 270.828 20.8987 270.977 20.92C271.137 20.9307 271.271 20.9467 271.377 20.968V22.776C271.271 22.7547 271.169 22.744 271.073 22.744C270.988 22.7333 270.908 22.728 270.833 22.728C270.364 22.728 270.001 22.8347 269.745 23.048C269.489 23.2507 269.361 23.5707 269.361 24.008V24.296H271.297V26.168H269.361V33H267.265ZM275.777 33V21.08H280.225C281.036 21.08 281.75 21.2293 282.369 21.528C282.998 21.816 283.489 22.2427 283.841 22.808C284.193 23.3627 284.369 24.04 284.369 24.84C284.369 25.6293 284.188 26.3067 283.825 26.872C283.473 27.4267 282.988 27.8533 282.369 28.152C281.75 28.4507 281.036 28.6 280.225 28.6H277.953V33H275.777ZM277.953 26.68H280.257C280.652 26.68 280.993 26.6053 281.281 26.456C281.569 26.296 281.793 26.0773 281.953 25.8C282.113 25.5227 282.193 25.2027 282.193 24.84C282.193 24.4667 282.113 24.1467 281.953 23.88C281.793 23.6027 281.569 23.3893 281.281 23.24C280.993 23.08 280.652 23 280.257 23H277.953V26.68ZM285.976 33V24.296H287.944V26.232L287.784 25.944C287.987 25.2933 288.301 24.84 288.728 24.584C289.165 24.328 289.688 24.2 290.296 24.2H290.808V26.056H290.056C289.459 26.056 288.979 26.2427 288.616 26.616C288.253 26.9787 288.072 27.4907 288.072 28.152V33H285.976ZM296.216 33.192C295.363 33.192 294.584 32.9947 293.88 32.6C293.187 32.2053 292.632 31.6667 292.216 30.984C291.811 30.3013 291.608 29.5227 291.608 28.648C291.608 27.7733 291.811 26.9947 292.216 26.312C292.632 25.6293 293.187 25.0907 293.88 24.696C294.574 24.3013 295.352 24.104 296.216 24.104C297.07 24.104 297.843 24.3013 298.536 24.696C299.23 25.0907 299.779 25.6293 300.184 26.312C300.6 26.984 300.808 27.7627 300.808 28.648C300.808 29.5227 300.6 30.3013 300.184 30.984C299.768 31.6667 299.214 32.2053 298.52 32.6C297.827 32.9947 297.059 33.192 296.216 33.192ZM296.216 31.272C296.686 31.272 297.096 31.16 297.448 30.936C297.811 30.712 298.094 30.4027 298.296 30.008C298.51 29.6027 298.616 29.1493 298.616 28.648C298.616 28.136 298.51 27.688 298.296 27.304C298.094 26.9093 297.811 26.6 297.448 26.376C297.096 26.1413 296.686 26.024 296.216 26.024C295.736 26.024 295.315 26.1413 294.952 26.376C294.59 26.6 294.302 26.9093 294.088 27.304C293.886 27.688 293.784 28.136 293.784 28.648C293.784 29.1493 293.886 29.6027 294.088 30.008C294.302 30.4027 294.59 30.712 294.952 30.936C295.315 31.16 295.736 31.272 296.216 31.272ZM303.218 33V26.168H301.682V24.296H303.218V24.008C303.218 23.3467 303.352 22.7867 303.618 22.328C303.896 21.8587 304.28 21.5013 304.77 21.256C305.261 21.0107 305.842 20.888 306.514 20.888C306.642 20.888 306.781 20.8987 306.93 20.92C307.09 20.9307 307.224 20.9467 307.33 20.968V22.776C307.224 22.7547 307.122 22.744 307.026 22.744C306.941 22.7333 306.861 22.728 306.786 22.728C306.317 22.728 305.954 22.8347 305.698 23.048C305.442 23.2507 305.314 23.5707 305.314 24.008V24.296H309.122V26.168H305.314V33H303.218ZM308.338 33V24.296H310.45V33H308.338ZM316.387 33.192C315.523 33.192 314.744 32.9947 314.051 32.6C313.368 32.1947 312.829 31.6507 312.435 30.968C312.04 30.2747 311.843 29.496 311.843 28.632C311.843 27.768 312.04 26.9947 312.435 26.312C312.829 25.6293 313.368 25.0907 314.051 24.696C314.744 24.3013 315.523 24.104 316.387 24.104C317.005 24.104 317.581 24.216 318.115 24.44C318.648 24.6533 319.107 24.952 319.491 25.336C319.885 25.7093 320.168 26.1573 320.339 26.68L318.499 27.48C318.339 27.0427 318.067 26.6907 317.683 26.424C317.309 26.1573 316.877 26.024 316.387 26.024C315.928 26.024 315.517 26.136 315.155 26.36C314.803 26.584 314.525 26.8933 314.323 27.288C314.12 27.6827 314.019 28.136 314.019 28.648C314.019 29.16 314.12 29.6133 314.323 30.008C314.525 30.4027 314.803 30.712 315.155 30.936C315.517 31.16 315.928 31.272 316.387 31.272C316.888 31.272 317.325 31.1387 317.699 30.872C318.072 30.6053 318.339 30.248 318.499 29.8L320.339 30.632C320.168 31.1227 319.891 31.5653 319.507 31.96C319.123 32.344 318.664 32.648 318.131 32.872C317.597 33.0853 317.016 33.192 316.387 33.192ZM321.929 33V24.296H324.025V33H321.929ZM321.929 23.32V21.08H324.025V23.32H321.929ZM330.088 33.192C329.192 33.192 328.408 32.9893 327.736 32.584C327.064 32.1787 326.542 31.6293 326.168 30.936C325.795 30.2427 325.608 29.4747 325.608 28.632C325.608 27.7573 325.795 26.984 326.168 26.312C326.552 25.6293 327.07 25.0907 327.72 24.696C328.382 24.3013 329.118 24.104 329.928 24.104C330.611 24.104 331.208 24.216 331.72 24.44C332.243 24.664 332.686 24.9733 333.048 25.368C333.411 25.7627 333.688 26.216 333.88 26.728C334.072 27.2293 334.168 27.7733 334.168 28.36C334.168 28.5093 334.158 28.664 334.136 28.824C334.126 28.984 334.099 29.1227 334.056 29.24H327.336V27.64H332.872L331.88 28.392C331.976 27.9013 331.95 27.464 331.8 27.08C331.662 26.696 331.427 26.392 331.096 26.168C330.776 25.944 330.387 25.832 329.928 25.832C329.491 25.832 329.102 25.944 328.76 26.168C328.419 26.3813 328.158 26.7013 327.976 27.128C327.806 27.544 327.742 28.0507 327.784 28.648C327.742 29.1813 327.811 29.656 327.992 30.072C328.184 30.4773 328.462 30.792 328.824 31.016C329.198 31.24 329.624 31.352 330.104 31.352C330.584 31.352 330.99 31.2507 331.32 31.048C331.662 30.8453 331.928 30.5733 332.12 30.232L333.816 31.064C333.646 31.48 333.379 31.848 333.016 32.168C332.654 32.488 332.222 32.7387 331.72 32.92C331.23 33.1013 330.686 33.192 330.088 33.192ZM335.757 33V24.296H337.725V26.008L337.565 25.704C337.768 25.1813 338.099 24.7867 338.557 24.52C339.027 24.2427 339.571 24.104 340.189 24.104C340.829 24.104 341.395 24.2427 341.885 24.52C342.387 24.7973 342.776 25.1867 343.053 25.688C343.331 26.1787 343.469 26.7493 343.469 27.4V33H341.373V27.896C341.373 27.512 341.299 27.1813 341.149 26.904C341 26.6267 340.792 26.4133 340.525 26.264C340.269 26.104 339.965 26.024 339.613 26.024C339.272 26.024 338.968 26.104 338.701 26.264C338.435 26.4133 338.227 26.6267 338.077 26.904C337.928 27.1813 337.853 27.512 337.853 27.896V33H335.757ZM349.434 33.192C348.57 33.192 347.791 32.9947 347.098 32.6C346.415 32.1947 345.876 31.6507 345.482 30.968C345.087 30.2747 344.89 29.496 344.89 28.632C344.89 27.768 345.087 26.9947 345.482 26.312C345.876 25.6293 346.415 25.0907 347.098 24.696C347.791 24.3013 348.57 24.104 349.434 24.104C350.052 24.104 350.628 24.216 351.162 24.44C351.695 24.6533 352.154 24.952 352.538 25.336C352.932 25.7093 353.215 26.1573 353.386 26.68L351.546 27.48C351.386 27.0427 351.114 26.6907 350.73 26.424C350.356 26.1573 349.924 26.024 349.434 26.024C348.975 26.024 348.564 26.136 348.202 26.36C347.85 26.584 347.572 26.8933 347.37 27.288C347.167 27.6827 347.066 28.136 347.066 28.648C347.066 29.16 347.167 29.6133 347.37 30.008C347.572 30.4027 347.85 30.712 348.202 30.936C348.564 31.16 348.975 31.272 349.434 31.272C349.935 31.272 350.372 31.1387 350.746 30.872C351.119 30.6053 351.386 30.248 351.546 29.8L353.386 30.632C353.215 31.1227 352.938 31.5653 352.554 31.96C352.17 32.344 351.711 32.648 351.178 32.872C350.644 33.0853 350.063 33.192 349.434 33.192ZM356.032 36.52C355.797 36.52 355.568 36.4987 355.344 36.456C355.12 36.424 354.917 36.36 354.736 36.264V34.52C354.875 34.552 355.04 34.584 355.232 34.616C355.435 34.648 355.621 34.664 355.792 34.664C356.272 34.664 356.619 34.552 356.832 34.328C357.056 34.1147 357.253 33.8267 357.424 33.464L358 32.12L357.968 33.88L354.176 24.296H356.432L359.088 31.368H358.288L360.928 24.296H363.2L359.408 33.88C359.184 34.4347 358.912 34.9093 358.592 35.304C358.272 35.6987 357.899 35.9973 357.472 36.2C357.056 36.4133 356.576 36.52 356.032 36.52Z" fill="white"/>
<path d="M562.238 33V21.08H564.414V33H562.238ZM566.707 33V21.08H574.627V23H568.883V26.056H574.307V27.976H568.883V31.08H574.627V33H566.707ZM576.222 33V21.08H578.398V31.08H583.502V33H576.222ZM586.069 33V23H582.981V21.08H591.301V23H588.261V33H586.069ZM596.885 33.192C596.127 33.192 595.423 33.0533 594.773 32.776C594.133 32.4987 593.578 32.1147 593.109 31.624C592.65 31.1227 592.314 30.5413 592.101 29.88L593.909 29.096C594.197 29.7787 594.613 30.3173 595.157 30.712C595.701 31.096 596.314 31.288 596.997 31.288C597.381 31.288 597.711 31.2293 597.989 31.112C598.277 30.984 598.495 30.8133 598.645 30.6C598.805 30.3867 598.885 30.1307 598.885 29.832C598.885 29.48 598.778 29.192 598.565 28.968C598.362 28.7333 598.053 28.552 597.637 28.424L595.349 27.688C594.421 27.4 593.722 26.968 593.253 26.392C592.783 25.816 592.549 25.1387 592.549 24.36C592.549 23.6773 592.714 23.0747 593.045 22.552C593.386 22.0293 593.855 21.624 594.453 21.336C595.061 21.0373 595.754 20.888 596.533 20.888C597.247 20.888 597.903 21.016 598.501 21.272C599.098 21.5173 599.61 21.864 600.037 22.312C600.474 22.7493 600.799 23.2667 601.013 23.864L599.221 24.664C598.986 24.0667 598.634 23.608 598.165 23.288C597.695 22.9573 597.151 22.792 596.533 22.792C596.17 22.792 595.85 22.856 595.573 22.984C595.295 23.1013 595.077 23.272 594.917 23.496C594.767 23.7093 594.693 23.9653 594.693 24.264C594.693 24.5947 594.799 24.888 595.013 25.144C595.226 25.3893 595.551 25.5813 595.989 25.72L598.181 26.408C599.13 26.7173 599.839 27.144 600.309 27.688C600.789 28.232 601.029 28.904 601.029 29.704C601.029 30.3867 600.853 30.9893 600.501 31.512C600.149 32.0347 599.663 32.4453 599.045 32.744C598.426 33.0427 597.706 33.192 596.885 33.192ZM610.088 33.192C609.33 33.192 608.626 33.0533 607.976 32.776C607.336 32.4987 606.781 32.1147 606.312 31.624C605.853 31.1227 605.517 30.5413 605.304 29.88L607.112 29.096C607.4 29.7787 607.816 30.3173 608.36 30.712C608.904 31.096 609.517 31.288 610.2 31.288C610.584 31.288 610.914 31.2293 611.192 31.112C611.48 30.984 611.698 30.8133 611.848 30.6C612.008 30.3867 612.088 30.1307 612.088 29.832C612.088 29.48 611.981 29.192 611.768 28.968C611.565 28.7333 611.256 28.552 610.84 28.424L608.552 27.688C607.624 27.4 606.925 26.968 606.456 26.392C605.986 25.816 605.752 25.1387 605.752 24.36C605.752 23.6773 605.917 23.0747 606.248 22.552C606.589 22.0293 607.058 21.624 607.656 21.336C608.264 21.0373 608.957 20.888 609.736 20.888C610.45 20.888 611.106 21.016 611.704 21.272C612.301 21.5173 612.813 21.864 613.24 22.312C613.677 22.7493 614.002 23.2667 614.216 23.864L612.424 24.664C612.189 24.0667 611.837 23.608 611.368 23.288C610.898 22.9573 610.354 22.792 609.736 22.792C609.373 22.792 609.053 22.856 608.776 22.984C608.498 23.1013 608.28 23.272 608.12 23.496C607.97 23.7093 607.896 23.9653 607.896 24.264C607.896 24.5947 608.002 24.888 608.216 25.144C608.429 25.3893 608.754 25.5813 609.192 25.72L611.384 26.408C612.333 26.7173 613.042 27.144 613.512 27.688C613.992 28.232 614.232 28.904 614.232 29.704C614.232 30.3867 614.056 30.9893 613.704 31.512C613.352 32.0347 612.866 32.4453 612.248 32.744C611.629 33.0427 610.909 33.192 610.088 33.192ZM620.207 33.192C619.343 33.192 618.564 32.9947 617.871 32.6C617.188 32.1947 616.65 31.6507 616.255 30.968C615.86 30.2747 615.663 29.496 615.663 28.632C615.663 27.768 615.86 26.9947 616.255 26.312C616.65 25.6293 617.188 25.0907 617.871 24.696C618.564 24.3013 619.343 24.104 620.207 24.104C620.826 24.104 621.402 24.216 621.935 24.44C622.468 24.6533 622.927 24.952 623.311 25.336C623.706 25.7093 623.988 26.1573 624.159 26.68L622.319 27.48C622.159 27.0427 621.887 26.6907 621.503 26.424C621.13 26.1573 620.698 26.024 620.207 26.024C619.748 26.024 619.338 26.136 618.975 26.36C618.623 26.584 618.346 26.8933 618.143 27.288C617.94 27.6827 617.839 28.136 617.839 28.648C617.839 29.16 617.94 29.6133 618.143 30.008C618.346 30.4027 618.623 30.712 618.975 30.936C619.338 31.16 619.748 31.272 620.207 31.272C620.708 31.272 621.146 31.1387 621.519 30.872C621.892 30.6053 622.159 30.248 622.319 29.8L624.159 30.632C623.988 31.1227 623.711 31.5653 623.327 31.96C622.943 32.344 622.484 32.648 621.951 32.872C621.418 33.0853 620.836 33.192 620.207 33.192ZM630.005 33.192C629.152 33.192 628.373 32.9947 627.669 32.6C626.976 32.2053 626.421 31.6667 626.005 30.984C625.6 30.3013 625.397 29.5227 625.397 28.648C625.397 27.7733 625.6 26.9947 626.005 26.312C626.421 25.6293 626.976 25.0907 627.669 24.696C628.363 24.3013 629.141 24.104 630.005 24.104C630.859 24.104 631.632 24.3013 632.325 24.696C633.019 25.0907 633.568 25.6293 633.973 26.312C634.389 26.984 634.597 27.7627 634.597 28.648C634.597 29.5227 634.389 30.3013 633.973 30.984C633.557 31.6667 633.003 32.2053 632.309 32.6C631.616 32.9947 630.848 33.192 630.005 33.192ZM630.005 31.272C630.475 31.272 630.885 31.16 631.237 30.936C631.6 30.712 631.883 30.4027 632.085 30.008C632.299 29.6027 632.405 29.1493 632.405 28.648C632.405 28.136 632.299 27.688 632.085 27.304C631.883 26.9093 631.6 26.6 631.237 26.376C630.885 26.1413 630.475 26.024 630.005 26.024C629.525 26.024 629.104 26.1413 628.741 26.376C628.379 26.6 628.091 26.9093 627.877 27.304C627.675 27.688 627.573 28.136 627.573 28.648C627.573 29.1493 627.675 29.6027 627.877 30.008C628.091 30.4027 628.379 30.712 628.741 30.936C629.104 31.16 629.525 31.272 630.005 31.272ZM636.187 33V24.296H638.155V26.232L637.995 25.944C638.198 25.2933 638.512 24.84 638.939 24.584C639.376 24.328 639.899 24.2 640.507 24.2H641.019V26.056H640.267C639.67 26.056 639.19 26.2427 638.827 26.616C638.464 26.9787 638.283 27.4907 638.283 28.152V33H636.187ZM646.299 33.192C645.403 33.192 644.619 32.9893 643.947 32.584C643.275 32.1787 642.753 31.6293 642.379 30.936C642.006 30.2427 641.819 29.4747 641.819 28.632C641.819 27.7573 642.006 26.984 642.379 26.312C642.763 25.6293 643.281 25.0907 643.931 24.696C644.593 24.3013 645.329 24.104 646.139 24.104C646.822 24.104 647.419 24.216 647.931 24.44C648.454 24.664 648.897 24.9733 649.259 25.368C649.622 25.7627 649.899 26.216 650.091 26.728C650.283 27.2293 650.379 27.7733 650.379 28.36C650.379 28.5093 650.369 28.664 650.347 28.824C650.337 28.984 650.31 29.1227 650.267 29.24H643.547V27.64H649.083L648.091 28.392C648.187 27.9013 648.161 27.464 648.011 27.08C647.873 26.696 647.638 26.392 647.307 26.168C646.987 25.944 646.598 25.832 646.139 25.832C645.702 25.832 645.313 25.944 644.971 26.168C644.63 26.3813 644.369 26.7013 644.187 27.128C644.017 27.544 643.953 28.0507 643.995 28.648C643.953 29.1813 644.022 29.656 644.203 30.072C644.395 30.4773 644.673 30.792 645.035 31.016C645.409 31.24 645.835 31.352 646.315 31.352C646.795 31.352 647.201 31.2507 647.531 31.048C647.873 30.8453 648.139 30.5733 648.331 30.232L650.027 31.064C649.857 31.48 649.59 31.848 649.227 32.168C648.865 32.488 648.433 32.7387 647.931 32.92C647.441 33.1013 646.897 33.192 646.299 33.192ZM654.988 33V21.08H660.012C660.801 21.08 661.473 21.2187 662.028 21.496C662.593 21.7627 663.025 22.1467 663.324 22.648C663.633 23.1387 663.788 23.736 663.788 24.44C663.788 24.984 663.639 25.496 663.34 25.976C663.052 26.4453 662.588 26.8347 661.948 27.144V26.136C662.535 26.36 662.999 26.6373 663.34 26.968C663.681 27.2987 663.921 27.6667 664.06 28.072C664.199 28.4773 664.268 28.904 664.268 29.352C664.268 30.4933 663.889 31.3893 663.132 32.04C662.385 32.68 661.345 33 660.012 33H654.988ZM657.164 31.08H660.236C660.801 31.08 661.249 30.9253 661.58 30.616C661.921 30.296 662.092 29.8747 662.092 29.352C662.092 28.8293 661.921 28.408 661.58 28.088C661.249 27.768 660.801 27.608 660.236 27.608H657.164V31.08ZM657.164 25.704H660.124C660.572 25.704 660.929 25.576 661.196 25.32C661.463 25.0533 661.596 24.712 661.596 24.296C661.596 23.88 661.463 23.5493 661.196 23.304C660.929 23.0587 660.572 22.936 660.124 22.936H657.164V25.704ZM668.514 33.192C667.906 33.192 667.378 33.0907 666.93 32.888C666.482 32.6853 666.136 32.3973 665.89 32.024C665.645 31.64 665.522 31.1973 665.522 30.696C665.522 30.216 665.629 29.7893 665.842 29.416C666.056 29.032 666.386 28.712 666.834 28.456C667.282 28.2 667.848 28.0187 668.53 27.912L671.378 27.448V29.048L668.93 29.464C668.514 29.5387 668.205 29.672 668.002 29.864C667.8 30.056 667.698 30.3067 667.698 30.616C667.698 30.9147 667.81 31.1547 668.034 31.336C668.269 31.5067 668.557 31.592 668.898 31.592C669.336 31.592 669.72 31.5013 670.05 31.32C670.392 31.128 670.653 30.8667 670.834 30.536C671.026 30.2053 671.122 29.8427 671.122 29.448V27.208C671.122 26.8347 670.973 26.5253 670.674 26.28C670.386 26.024 670.002 25.896 669.522 25.896C669.074 25.896 668.674 26.0187 668.322 26.264C667.981 26.4987 667.73 26.8133 667.57 27.208L665.858 26.376C666.029 25.9173 666.296 25.5227 666.658 25.192C667.032 24.8507 667.469 24.584 667.97 24.392C668.472 24.2 669.016 24.104 669.602 24.104C670.317 24.104 670.946 24.2373 671.49 24.504C672.034 24.76 672.456 25.1227 672.754 25.592C673.064 26.0507 673.218 26.5893 673.218 27.208V33H671.234V31.512L671.682 31.48C671.458 31.8533 671.192 32.168 670.882 32.424C670.573 32.6693 670.221 32.8613 669.826 33C669.432 33.128 668.994 33.192 668.514 33.192ZM675.156 33V24.296H677.124V26.008L676.964 25.704C677.166 25.1813 677.497 24.7867 677.956 24.52C678.425 24.2427 678.969 24.104 679.588 24.104C680.228 24.104 680.793 24.2427 681.284 24.52C681.785 24.7973 682.174 25.1867 682.452 25.688C682.729 26.1787 682.868 26.7493 682.868 27.4V33H680.772V27.896C680.772 27.512 680.697 27.1813 680.548 26.904C680.398 26.6267 680.19 26.4133 679.924 26.264C679.668 26.104 679.364 26.024 679.012 26.024C678.67 26.024 678.366 26.104 678.1 26.264C677.833 26.4133 677.625 26.6267 677.476 26.904C677.326 27.1813 677.252 27.512 677.252 27.896V33H675.156ZM688.688 33.192C687.845 33.192 687.093 32.9947 686.432 32.6C685.771 32.1947 685.248 31.6453 684.864 30.952C684.48 30.2587 684.288 29.4907 684.288 28.648C684.288 27.7947 684.48 27.0267 684.864 26.344C685.248 25.6613 685.771 25.1173 686.432 24.712C687.104 24.3067 687.851 24.104 688.672 24.104C689.333 24.104 689.92 24.2373 690.432 24.504C690.955 24.76 691.365 25.1227 691.664 25.592L691.344 26.024V20.888H693.44V33H691.456V31.32L691.68 31.736C691.381 32.2053 690.965 32.568 690.432 32.824C689.899 33.0693 689.317 33.192 688.688 33.192ZM688.912 31.272C689.392 31.272 689.813 31.16 690.176 30.936C690.539 30.712 690.821 30.4027 691.024 30.008C691.237 29.6133 691.344 29.16 691.344 28.648C691.344 28.1467 691.237 27.6987 691.024 27.304C690.821 26.8987 690.539 26.584 690.176 26.36C689.813 26.136 689.392 26.024 688.912 26.024C688.443 26.024 688.021 26.1413 687.648 26.376C687.275 26.6 686.981 26.9093 686.768 27.304C686.565 27.688 686.464 28.136 686.464 28.648C686.464 29.16 686.565 29.6133 686.768 30.008C686.981 30.4027 687.275 30.712 687.648 30.936C688.021 31.16 688.443 31.272 688.912 31.272Z" fill="white"/>
<path d="M70.5988 80V71.194H68.5828V69.57H72.5028V80H70.5988Z" fill="#4B4B4B"/>
<path d="M250.406 80V69.57H257.126V70.62H251.526V74.246H256.846V75.296H251.526V78.95H257.126V80H250.406ZM257.9 80L260.532 76.248L257.914 72.496H259.202L261.526 75.87H260.812L263.122 72.496H264.41L261.792 76.248L264.41 80H263.122L260.812 76.626H261.526L259.202 80H257.9ZM265.646 82.8V72.496H266.696V74.176L266.528 73.882C266.827 73.406 267.224 73.028 267.718 72.748C268.222 72.468 268.796 72.328 269.44 72.328C270.15 72.328 270.78 72.5007 271.33 72.846C271.89 73.182 272.329 73.644 272.646 74.232C272.973 74.82 273.136 75.492 273.136 76.248C273.136 76.9947 272.973 77.6667 272.646 78.264C272.329 78.852 271.89 79.3187 271.33 79.664C270.78 80 270.15 80.168 269.44 80.168C268.796 80.168 268.213 80.0233 267.69 79.734C267.177 79.4353 266.79 79.0153 266.528 78.474L266.696 78.32V82.8H265.646ZM269.384 79.118C269.888 79.118 270.336 78.992 270.728 78.74C271.13 78.488 271.442 78.1473 271.666 77.718C271.9 77.2793 272.016 76.7893 272.016 76.248C272.016 75.6973 271.9 75.2073 271.666 74.778C271.442 74.3487 271.13 74.008 270.728 73.756C270.336 73.504 269.888 73.378 269.384 73.378C268.88 73.378 268.423 73.504 268.012 73.756C267.611 74.008 267.289 74.3533 267.046 74.792C266.813 75.2213 266.696 75.7067 266.696 76.248C266.696 76.7893 266.813 77.2793 267.046 77.718C267.289 78.1473 267.611 78.488 268.012 78.74C268.423 78.992 268.88 79.118 269.384 79.118ZM278.4 80.168C277.7 80.168 277.066 80 276.496 79.664C275.936 79.3187 275.493 78.8473 275.166 78.25C274.84 77.6527 274.676 76.976 274.676 76.22C274.676 75.464 274.835 74.7967 275.152 74.218C275.47 73.63 275.899 73.168 276.44 72.832C276.991 72.496 277.607 72.328 278.288 72.328C278.83 72.328 279.31 72.4307 279.73 72.636C280.16 72.832 280.524 73.1027 280.822 73.448C281.121 73.784 281.35 74.1667 281.508 74.596C281.667 75.016 281.746 75.45 281.746 75.898C281.746 75.9913 281.742 76.0987 281.732 76.22C281.723 76.332 281.709 76.4487 281.69 76.57H275.348V75.59H281.088L280.584 76.01C280.668 75.4967 280.608 75.0393 280.402 74.638C280.206 74.2273 279.922 73.9053 279.548 73.672C279.175 73.4293 278.755 73.308 278.288 73.308C277.822 73.308 277.388 73.4293 276.986 73.672C276.594 73.9147 276.286 74.2553 276.062 74.694C275.838 75.1233 275.75 75.6367 275.796 76.234C275.75 76.8313 275.843 77.354 276.076 77.802C276.319 78.2407 276.646 78.5813 277.056 78.824C277.476 79.0667 277.924 79.188 278.4 79.188C278.951 79.188 279.413 79.0573 279.786 78.796C280.16 78.5347 280.463 78.208 280.696 77.816L281.592 78.292C281.443 78.628 281.214 78.9407 280.906 79.23C280.598 79.51 280.23 79.7387 279.8 79.916C279.38 80.084 278.914 80.168 278.4 80.168ZM283.598 80V72.496H284.648V73.728L284.508 73.546C284.685 73.1913 284.951 72.9113 285.306 72.706C285.67 72.5007 286.108 72.398 286.622 72.398H287.098V73.448H286.44C285.898 73.448 285.464 73.616 285.138 73.952C284.811 74.288 284.648 74.764 284.648 75.38V80H283.598ZM291.198 80.084C290.526 80.084 290.008 79.888 289.644 79.496C289.28 79.104 289.098 78.544 289.098 77.816V73.546H287.712V72.496H288.062C288.379 72.496 288.631 72.3933 288.818 72.188C289.005 71.9733 289.098 71.7073 289.098 71.39V70.76H290.148V72.496H291.8V73.546H290.148V77.816C290.148 78.068 290.185 78.292 290.26 78.488C290.335 78.6747 290.461 78.824 290.638 78.936C290.825 79.048 291.072 79.104 291.38 79.104C291.455 79.104 291.543 79.0993 291.646 79.09C291.749 79.0807 291.837 79.0713 291.912 79.062V80C291.8 80.028 291.674 80.0467 291.534 80.056C291.394 80.0747 291.282 80.084 291.198 80.084ZM299.957 80.168C299.219 80.168 298.571 80.014 298.011 79.706C297.451 79.398 297.017 78.978 296.709 78.446C296.401 77.9047 296.247 77.2887 296.247 76.598V69.57H297.367V76.598C297.367 77.102 297.474 77.5453 297.689 77.928C297.913 78.3013 298.216 78.5953 298.599 78.81C298.991 79.0153 299.443 79.118 299.957 79.118C300.47 79.118 300.918 79.0153 301.301 78.81C301.693 78.5953 301.996 78.3013 302.211 77.928C302.435 77.5453 302.547 77.102 302.547 76.598V69.57H303.667V76.598C303.667 77.2887 303.513 77.9047 303.205 78.446C302.897 78.978 302.463 79.398 301.903 79.706C301.352 80.014 300.703 80.168 299.957 80.168ZM308.541 80.168C307.823 80.168 307.193 79.986 306.651 79.622C306.11 79.258 305.718 78.7633 305.475 78.138L306.357 77.718C306.572 78.1753 306.871 78.5393 307.253 78.81C307.645 79.0807 308.075 79.216 308.541 79.216C308.989 79.216 309.367 79.1087 309.675 78.894C309.983 78.67 310.137 78.3807 310.137 78.026C310.137 77.7647 310.063 77.5593 309.913 77.41C309.764 77.2513 309.591 77.13 309.395 77.046C309.199 76.962 309.027 76.9013 308.877 76.864L307.799 76.556C307.109 76.36 306.609 76.0847 306.301 75.73C305.993 75.3753 305.839 74.9647 305.839 74.498C305.839 74.0593 305.951 73.6767 306.175 73.35C306.399 73.0233 306.703 72.7713 307.085 72.594C307.468 72.4167 307.893 72.328 308.359 72.328C308.994 72.328 309.568 72.496 310.081 72.832C310.604 73.1587 310.973 73.616 311.187 74.204L310.291 74.624C310.105 74.204 309.834 73.8773 309.479 73.644C309.134 73.4013 308.747 73.28 308.317 73.28C307.897 73.28 307.561 73.3873 307.309 73.602C307.057 73.8167 306.931 74.0873 306.931 74.414C306.931 74.666 306.997 74.8667 307.127 75.016C307.258 75.1653 307.407 75.2773 307.575 75.352C307.753 75.4267 307.907 75.4827 308.037 75.52L309.283 75.884C309.89 76.0613 310.361 76.3367 310.697 76.71C311.043 77.0833 311.215 77.522 311.215 78.026C311.215 78.4367 311.099 78.8053 310.865 79.132C310.641 79.4587 310.329 79.7153 309.927 79.902C309.526 80.0793 309.064 80.168 308.541 80.168ZM316.476 80.168C315.776 80.168 315.142 80 314.572 79.664C314.012 79.3187 313.569 78.8473 313.242 78.25C312.916 77.6527 312.752 76.976 312.752 76.22C312.752 75.464 312.911 74.7967 313.228 74.218C313.546 73.63 313.975 73.168 314.516 72.832C315.067 72.496 315.683 72.328 316.364 72.328C316.906 72.328 317.386 72.4307 317.806 72.636C318.236 72.832 318.6 73.1027 318.898 73.448C319.197 73.784 319.426 74.1667 319.584 74.596C319.743 75.016 319.822 75.45 319.822 75.898C319.822 75.9913 319.818 76.0987 319.808 76.22C319.799 76.332 319.785 76.4487 319.766 76.57H313.424V75.59H319.164L318.66 76.01C318.744 75.4967 318.684 75.0393 318.478 74.638C318.282 74.2273 317.998 73.9053 317.624 73.672C317.251 73.4293 316.831 73.308 316.364 73.308C315.898 73.308 315.464 73.4293 315.062 73.672C314.67 73.9147 314.362 74.2553 314.138 74.694C313.914 75.1233 313.826 75.6367 313.872 76.234C313.826 76.8313 313.919 77.354 314.152 77.802C314.395 78.2407 314.722 78.5813 315.132 78.824C315.552 79.0667 316 79.188 316.476 79.188C317.027 79.188 317.489 79.0573 317.862 78.796C318.236 78.5347 318.539 78.208 318.772 77.816L319.668 78.292C319.519 78.628 319.29 78.9407 318.982 79.23C318.674 79.51 318.306 79.7387 317.876 79.916C317.456 80.084 316.99 80.168 316.476 80.168ZM321.674 80V72.496H322.724V73.728L322.584 73.546C322.761 73.1913 323.027 72.9113 323.382 72.706C323.746 72.5007 324.184 72.398 324.698 72.398H325.174V73.448H324.516C323.974 73.448 323.54 73.616 323.214 73.952C322.887 74.288 322.724 74.764 322.724 75.38V80H321.674Z" fill="#4B4B4B"/>
<path d="M627.707 68.717C628.342 68.717 628.916 68.871 629.429 69.179C629.947 69.4823 630.358 69.8977 630.661 70.425C630.965 70.9477 631.116 71.5357 631.116 72.189V75.689C631.116 76.361 630.965 76.963 630.661 77.495C630.358 78.027 629.943 78.447 629.415 78.755C628.893 79.0583 628.298 79.21 627.63 79.21C627.056 79.21 626.524 79.084 626.034 78.832C625.549 78.5753 625.148 78.223 624.83 77.775L625.614 77.124C625.829 77.4553 626.114 77.7213 626.468 77.922C626.828 78.1227 627.215 78.223 627.63 78.223C628.106 78.223 628.526 78.111 628.89 77.887C629.259 77.6583 629.548 77.3597 629.758 76.991C629.973 76.6177 630.08 76.214 630.08 75.78V73.582L630.332 73.876C630.043 74.338 629.658 74.7113 629.177 74.996C628.701 75.2807 628.179 75.423 627.609 75.423C626.989 75.423 626.426 75.2737 625.922 74.975C625.423 74.6763 625.026 74.275 624.732 73.771C624.443 73.267 624.298 72.7047 624.298 72.084C624.298 71.4633 624.452 70.8987 624.76 70.39C625.068 69.8767 625.481 69.4707 625.999 69.172C626.517 68.8687 627.087 68.717 627.707 68.717ZM627.707 69.711C627.269 69.711 626.87 69.8183 626.51 70.033C626.151 70.243 625.864 70.5277 625.649 70.887C625.439 71.2463 625.334 71.6453 625.334 72.084C625.334 72.5227 625.439 72.9217 625.649 73.281C625.859 73.6403 626.144 73.9273 626.503 74.142C626.863 74.352 627.262 74.457 627.7 74.457C628.139 74.457 628.538 74.352 628.897 74.142C629.261 73.9273 629.548 73.6403 629.758 73.281C629.973 72.9217 630.08 72.5227 630.08 72.084C630.08 71.65 629.973 71.2533 629.758 70.894C629.548 70.5347 629.264 70.2477 628.904 70.033C628.545 69.8183 628.146 69.711 627.707 69.711Z" fill="#4B4B4B"/>
<rect width="821" height="46" transform="translate(1 97)" fill="#F5FBFF"/>
<path d="M67.4672 126V124.558L70.2952 121.604C70.8552 121.016 71.2846 120.549 71.5832 120.204C71.8912 119.849 72.1059 119.546 72.2272 119.294C72.3486 119.042 72.4092 118.785 72.4092 118.524C72.4092 118.085 72.2692 117.74 71.9892 117.488C71.7186 117.236 71.3686 117.11 70.9392 117.11C70.4912 117.11 70.1039 117.241 69.7772 117.502C69.4506 117.754 69.2126 118.127 69.0632 118.622L67.3972 118.104C67.5092 117.553 67.7379 117.077 68.0832 116.676C68.4286 116.265 68.8486 115.953 69.3432 115.738C69.8472 115.514 70.3792 115.402 70.9392 115.402C71.6112 115.402 72.1992 115.523 72.7032 115.766C73.2166 116.009 73.6132 116.349 73.8932 116.788C74.1826 117.227 74.3272 117.74 74.3272 118.328C74.3272 118.701 74.2572 119.07 74.1172 119.434C73.9772 119.798 73.7672 120.171 73.4872 120.554C73.2072 120.927 72.8432 121.347 72.3952 121.814L69.9452 124.39H74.4672V126H67.4672Z" fill="#4B4B4B"/>
<path d="M239.478 126L235.656 115.57H236.818L240.178 125.006H239.954L243.3 115.57H244.476L240.654 126H239.478ZM248.432 126.168C247.732 126.168 247.097 126 246.528 125.664C245.968 125.319 245.524 124.847 245.198 124.25C244.871 123.653 244.708 122.976 244.708 122.22C244.708 121.464 244.866 120.797 245.184 120.218C245.501 119.63 245.93 119.168 246.472 118.832C247.022 118.496 247.638 118.328 248.32 118.328C248.861 118.328 249.342 118.431 249.762 118.636C250.191 118.832 250.555 119.103 250.854 119.448C251.152 119.784 251.381 120.167 251.54 120.596C251.698 121.016 251.778 121.45 251.778 121.898C251.778 121.991 251.773 122.099 251.764 122.22C251.754 122.332 251.74 122.449 251.722 122.57H245.38V121.59H251.12L250.616 122.01C250.7 121.497 250.639 121.039 250.434 120.638C250.238 120.227 249.953 119.905 249.58 119.672C249.206 119.429 248.786 119.308 248.32 119.308C247.853 119.308 247.419 119.429 247.018 119.672C246.626 119.915 246.318 120.255 246.094 120.694C245.87 121.123 245.781 121.637 245.828 122.234C245.781 122.831 245.874 123.354 246.108 123.802C246.35 124.241 246.677 124.581 247.088 124.824C247.508 125.067 247.956 125.188 248.432 125.188C248.982 125.188 249.444 125.057 249.818 124.796C250.191 124.535 250.494 124.208 250.728 123.816L251.624 124.292C251.474 124.628 251.246 124.941 250.938 125.23C250.63 125.51 250.261 125.739 249.832 125.916C249.412 126.084 248.945 126.168 248.432 126.168ZM253.629 126V118.496H254.679V119.728L254.539 119.546C254.716 119.191 254.982 118.911 255.337 118.706C255.701 118.501 256.139 118.398 256.653 118.398H257.129V119.448H256.471C255.929 119.448 255.495 119.616 255.169 119.952C254.842 120.288 254.679 120.764 254.679 121.38V126H253.629ZM258.513 129.08C258.364 129.08 258.21 129.066 258.051 129.038C257.902 129.019 257.753 128.982 257.603 128.926V127.946C257.697 127.955 257.813 127.969 257.953 127.988C258.103 128.016 258.252 128.03 258.401 128.03C258.859 128.03 259.209 127.932 259.451 127.736C259.694 127.549 259.932 127.185 260.165 126.644L260.641 125.524L260.613 126.448L257.435 118.496H258.569L261.173 125.062H260.879L263.469 118.496H264.631L261.201 126.952C261.052 127.316 260.861 127.661 260.627 127.988C260.403 128.315 260.119 128.576 259.773 128.772C259.428 128.977 259.008 129.08 258.513 129.08ZM273.158 126.168C272.421 126.168 271.744 126.037 271.128 125.776C270.512 125.505 269.975 125.132 269.518 124.656C269.07 124.171 268.72 123.601 268.468 122.948C268.216 122.295 268.09 121.576 268.09 120.792C268.09 120.008 268.216 119.289 268.468 118.636C268.72 117.983 269.07 117.413 269.518 116.928C269.975 116.443 270.512 116.069 271.128 115.808C271.744 115.537 272.421 115.402 273.158 115.402C273.867 115.402 274.502 115.528 275.062 115.78C275.631 116.032 276.107 116.359 276.49 116.76C276.882 117.152 277.162 117.567 277.33 118.006L276.322 118.496C276.061 117.861 275.659 117.362 275.118 116.998C274.577 116.634 273.923 116.452 273.158 116.452C272.393 116.452 271.711 116.634 271.114 116.998C270.517 117.362 270.05 117.871 269.714 118.524C269.378 119.168 269.21 119.924 269.21 120.792C269.21 121.651 269.378 122.407 269.714 123.06C270.05 123.713 270.517 124.222 271.114 124.586C271.711 124.941 272.393 125.118 273.158 125.118C273.839 125.118 274.451 124.969 274.992 124.67C275.543 124.371 275.977 123.965 276.294 123.452C276.611 122.929 276.77 122.332 276.77 121.66V121.086L277.274 121.59H273.158V120.61H277.89V121.478C277.89 122.159 277.769 122.789 277.526 123.368C277.283 123.937 276.947 124.432 276.518 124.852C276.089 125.272 275.585 125.599 275.006 125.832C274.437 126.056 273.821 126.168 273.158 126.168ZM283.256 126.168C282.547 126.168 281.903 126 281.324 125.664C280.745 125.319 280.283 124.852 279.938 124.264C279.602 123.667 279.434 122.99 279.434 122.234C279.434 121.487 279.602 120.82 279.938 120.232C280.274 119.644 280.727 119.182 281.296 118.846C281.875 118.501 282.528 118.328 283.256 118.328C283.984 118.328 284.633 118.496 285.202 118.832C285.781 119.168 286.233 119.63 286.56 120.218C286.896 120.806 287.064 121.478 287.064 122.234C287.064 122.999 286.891 123.681 286.546 124.278C286.201 124.866 285.739 125.328 285.16 125.664C284.591 126 283.956 126.168 283.256 126.168ZM283.256 125.118C283.76 125.118 284.213 124.992 284.614 124.74C285.025 124.488 285.347 124.143 285.58 123.704C285.823 123.265 285.944 122.775 285.944 122.234C285.944 121.693 285.823 121.207 285.58 120.778C285.347 120.349 285.025 120.008 284.614 119.756C284.213 119.504 283.76 119.378 283.256 119.378C282.752 119.378 282.295 119.504 281.884 119.756C281.483 120.008 281.161 120.349 280.918 120.778C280.675 121.207 280.554 121.693 280.554 122.234C280.554 122.775 280.675 123.265 280.918 123.704C281.161 124.143 281.483 124.488 281.884 124.74C282.295 124.992 282.752 125.118 283.256 125.118ZM292.43 126.168C291.721 126.168 291.077 126 290.498 125.664C289.919 125.319 289.457 124.852 289.112 124.264C288.776 123.667 288.608 122.99 288.608 122.234C288.608 121.487 288.776 120.82 289.112 120.232C289.448 119.644 289.901 119.182 290.47 118.846C291.049 118.501 291.702 118.328 292.43 118.328C293.158 118.328 293.807 118.496 294.376 118.832C294.955 119.168 295.407 119.63 295.734 120.218C296.07 120.806 296.238 121.478 296.238 122.234C296.238 122.999 296.065 123.681 295.72 124.278C295.375 124.866 294.913 125.328 294.334 125.664C293.765 126 293.13 126.168 292.43 126.168ZM292.43 125.118C292.934 125.118 293.387 124.992 293.788 124.74C294.199 124.488 294.521 124.143 294.754 123.704C294.997 123.265 295.118 122.775 295.118 122.234C295.118 121.693 294.997 121.207 294.754 120.778C294.521 120.349 294.199 120.008 293.788 119.756C293.387 119.504 292.934 119.378 292.43 119.378C291.926 119.378 291.469 119.504 291.058 119.756C290.657 120.008 290.335 120.349 290.092 120.778C289.849 121.207 289.728 121.693 289.728 122.234C289.728 122.775 289.849 123.265 290.092 123.704C290.335 124.143 290.657 124.488 291.058 124.74C291.469 124.992 291.926 125.118 292.43 125.118ZM301.478 126.168C300.778 126.168 300.148 126 299.588 125.664C299.028 125.319 298.584 124.852 298.258 124.264C297.94 123.667 297.782 122.995 297.782 122.248C297.782 121.492 297.94 120.82 298.258 120.232C298.584 119.644 299.023 119.182 299.574 118.846C300.134 118.501 300.768 118.328 301.478 118.328C302.122 118.328 302.696 118.468 303.2 118.748C303.704 119.028 304.1 119.406 304.39 119.882L304.222 120.176V115.402H305.272V126H304.222V124.32L304.39 124.474C304.128 125.015 303.736 125.435 303.214 125.734C302.7 126.023 302.122 126.168 301.478 126.168ZM301.534 125.118C302.038 125.118 302.49 124.992 302.892 124.74C303.302 124.488 303.624 124.147 303.858 123.718C304.1 123.279 304.222 122.789 304.222 122.248C304.222 121.707 304.1 121.221 303.858 120.792C303.624 120.353 303.302 120.008 302.892 119.756C302.49 119.504 302.038 119.378 301.534 119.378C301.039 119.378 300.591 119.504 300.19 119.756C299.788 120.008 299.471 120.349 299.238 120.778C299.014 121.207 298.902 121.697 298.902 122.248C298.902 122.789 299.014 123.279 299.238 123.718C299.471 124.147 299.784 124.488 300.176 124.74C300.577 124.992 301.03 125.118 301.534 125.118ZM313.629 126.168C312.891 126.168 312.243 126.014 311.683 125.706C311.123 125.398 310.689 124.978 310.381 124.446C310.073 123.905 309.919 123.289 309.919 122.598V115.57H311.039V122.598C311.039 123.102 311.146 123.545 311.361 123.928C311.585 124.301 311.888 124.595 312.271 124.81C312.663 125.015 313.115 125.118 313.629 125.118C314.142 125.118 314.59 125.015 314.973 124.81C315.365 124.595 315.668 124.301 315.883 123.928C316.107 123.545 316.219 123.102 316.219 122.598V115.57H317.339V122.598C317.339 123.289 317.185 123.905 316.877 124.446C316.569 124.978 316.135 125.398 315.575 125.706C315.024 126.014 314.375 126.168 313.629 126.168ZM322.213 126.168C321.495 126.168 320.865 125.986 320.323 125.622C319.782 125.258 319.39 124.763 319.147 124.138L320.029 123.718C320.244 124.175 320.543 124.539 320.925 124.81C321.317 125.081 321.747 125.216 322.213 125.216C322.661 125.216 323.039 125.109 323.347 124.894C323.655 124.67 323.809 124.381 323.809 124.026C323.809 123.765 323.735 123.559 323.585 123.41C323.436 123.251 323.263 123.13 323.067 123.046C322.871 122.962 322.699 122.901 322.549 122.864L321.471 122.556C320.781 122.36 320.281 122.085 319.973 121.73C319.665 121.375 319.511 120.965 319.511 120.498C319.511 120.059 319.623 119.677 319.847 119.35C320.071 119.023 320.375 118.771 320.757 118.594C321.14 118.417 321.565 118.328 322.031 118.328C322.666 118.328 323.24 118.496 323.753 118.832C324.276 119.159 324.645 119.616 324.859 120.204L323.963 120.624C323.777 120.204 323.506 119.877 323.151 119.644C322.806 119.401 322.419 119.28 321.989 119.28C321.569 119.28 321.233 119.387 320.981 119.602C320.729 119.817 320.603 120.087 320.603 120.414C320.603 120.666 320.669 120.867 320.799 121.016C320.93 121.165 321.079 121.277 321.247 121.352C321.425 121.427 321.579 121.483 321.709 121.52L322.955 121.884C323.562 122.061 324.033 122.337 324.369 122.71C324.715 123.083 324.887 123.522 324.887 124.026C324.887 124.437 324.771 124.805 324.537 125.132C324.313 125.459 324.001 125.715 323.599 125.902C323.198 126.079 322.736 126.168 322.213 126.168ZM330.148 126.168C329.448 126.168 328.814 126 328.244 125.664C327.684 125.319 327.241 124.847 326.914 124.25C326.588 123.653 326.424 122.976 326.424 122.22C326.424 121.464 326.583 120.797 326.9 120.218C327.218 119.63 327.647 119.168 328.188 118.832C328.739 118.496 329.355 118.328 330.036 118.328C330.578 118.328 331.058 118.431 331.478 118.636C331.908 118.832 332.272 119.103 332.57 119.448C332.869 119.784 333.098 120.167 333.256 120.596C333.415 121.016 333.494 121.45 333.494 121.898C333.494 121.991 333.49 122.099 333.48 122.22C333.471 122.332 333.457 122.449 333.438 122.57H327.096V121.59H332.836L332.332 122.01C332.416 121.497 332.356 121.039 332.15 120.638C331.954 120.227 331.67 119.905 331.296 119.672C330.923 119.429 330.503 119.308 330.036 119.308C329.57 119.308 329.136 119.429 328.734 119.672C328.342 119.915 328.034 120.255 327.81 120.694C327.586 121.123 327.498 121.637 327.544 122.234C327.498 122.831 327.591 123.354 327.824 123.802C328.067 124.241 328.394 124.581 328.804 124.824C329.224 125.067 329.672 125.188 330.148 125.188C330.699 125.188 331.161 125.057 331.534 124.796C331.908 124.535 332.211 124.208 332.444 123.816L333.34 124.292C333.191 124.628 332.962 124.941 332.654 125.23C332.346 125.51 331.978 125.739 331.548 125.916C331.128 126.084 330.662 126.168 330.148 126.168ZM335.346 126V118.496H336.396V119.728L336.256 119.546C336.433 119.191 336.699 118.911 337.054 118.706C337.418 118.501 337.856 118.398 338.37 118.398H338.846V119.448H338.188C337.646 119.448 337.212 119.616 336.886 119.952C336.559 120.288 336.396 120.764 336.396 121.38V126H335.346Z" fill="#4B4B4B"/>
<path d="M627.742 125.21C627.112 125.21 626.555 125.084 626.069 124.832C625.589 124.58 625.211 124.228 624.935 123.775C624.665 123.318 624.529 122.783 624.529 122.172C624.529 121.547 624.681 120.991 624.984 120.506C625.288 120.016 625.75 119.645 626.37 119.393L626.356 119.799C625.838 119.608 625.444 119.295 625.173 118.861C624.903 118.427 624.767 117.946 624.767 117.419C624.767 116.859 624.896 116.378 625.152 115.977C625.409 115.571 625.759 115.258 626.202 115.039C626.65 114.82 627.164 114.71 627.742 114.71C628.321 114.71 628.834 114.82 629.282 115.039C629.73 115.258 630.083 115.571 630.339 115.977C630.596 116.378 630.724 116.859 630.724 117.419C630.724 117.946 630.594 118.425 630.332 118.854C630.076 119.283 629.681 119.598 629.149 119.799L629.114 119.393C629.735 119.64 630.199 120.009 630.507 120.499C630.82 120.989 630.976 121.547 630.976 122.172C630.976 122.783 630.839 123.318 630.563 123.775C630.288 124.228 629.908 124.58 629.422 124.832C628.937 125.084 628.377 125.21 627.742 125.21ZM627.742 124.223C628.377 124.223 628.893 124.048 629.289 123.698C629.686 123.343 629.884 122.835 629.884 122.172C629.884 121.5 629.688 120.991 629.296 120.646C628.904 120.296 628.386 120.121 627.742 120.121C627.098 120.121 626.583 120.296 626.195 120.646C625.808 120.991 625.614 121.5 625.614 122.172C625.614 122.835 625.81 123.343 626.202 123.698C626.594 124.048 627.108 124.223 627.742 124.223ZM627.742 119.127C628.302 119.127 628.757 118.985 629.107 118.7C629.457 118.411 629.632 117.984 629.632 117.419C629.632 116.854 629.457 116.432 629.107 116.152C628.757 115.867 628.302 115.725 627.742 115.725C627.182 115.725 626.727 115.867 626.377 116.152C626.032 116.432 625.859 116.854 625.859 117.419C625.859 117.984 626.032 118.411 626.377 118.7C626.727 118.985 627.182 119.127 627.742 119.127Z" fill="#4B4B4B"/>
<path d="M70.8227 172.168C70.2534 172.168 69.712 172.065 69.1987 171.86C68.6947 171.645 68.2607 171.347 67.8967 170.964C67.542 170.572 67.2994 170.11 67.1687 169.578L68.8347 168.99C69.0027 169.466 69.2594 169.83 69.6047 170.082C69.95 170.325 70.356 170.446 70.8227 170.446C71.196 170.446 71.518 170.376 71.7887 170.236C72.0687 170.096 72.288 169.895 72.4467 169.634C72.6054 169.363 72.6847 169.046 72.6847 168.682C72.6847 168.318 72.6054 168.01 72.4467 167.758C72.2974 167.497 72.0827 167.296 71.8027 167.156C71.5227 167.016 71.1914 166.946 70.8087 166.946C70.6314 166.946 70.4447 166.965 70.2487 167.002C70.062 167.039 69.894 167.095 69.7447 167.17L69.3107 166.26L72.0127 163.18H67.7567V161.57H74.1547V163.068L71.4387 166.246L71.4667 165.532C72.092 165.541 72.638 165.677 73.1047 165.938C73.5714 166.199 73.9354 166.559 74.1967 167.016C74.458 167.473 74.5887 168.01 74.5887 168.626C74.5887 169.298 74.4254 169.905 74.0987 170.446C73.772 170.978 73.324 171.398 72.7547 171.706C72.1854 172.014 71.5414 172.168 70.8227 172.168Z" fill="#4B4B4B"/>
<path d="M257.326 172.168C256.589 172.168 255.912 172.037 255.296 171.776C254.68 171.505 254.143 171.132 253.686 170.656C253.238 170.171 252.888 169.601 252.636 168.948C252.384 168.295 252.258 167.576 252.258 166.792C252.258 166.008 252.384 165.289 252.636 164.636C252.888 163.983 253.238 163.413 253.686 162.928C254.143 162.443 254.68 162.069 255.296 161.808C255.912 161.537 256.589 161.402 257.326 161.402C258.035 161.402 258.67 161.528 259.23 161.78C259.799 162.032 260.275 162.359 260.658 162.76C261.05 163.152 261.33 163.567 261.498 164.006L260.49 164.496C260.229 163.861 259.827 163.362 259.286 162.998C258.745 162.634 258.091 162.452 257.326 162.452C256.561 162.452 255.879 162.634 255.282 162.998C254.685 163.362 254.218 163.871 253.882 164.524C253.546 165.168 253.378 165.924 253.378 166.792C253.378 167.651 253.546 168.407 253.882 169.06C254.218 169.713 254.685 170.222 255.282 170.586C255.879 170.941 256.561 171.118 257.326 171.118C258.007 171.118 258.619 170.969 259.16 170.67C259.711 170.371 260.145 169.965 260.462 169.452C260.779 168.929 260.938 168.332 260.938 167.66V167.086L261.442 167.59H257.326V166.61H262.058V167.478C262.058 168.159 261.937 168.789 261.694 169.368C261.451 169.937 261.115 170.432 260.686 170.852C260.257 171.272 259.753 171.599 259.174 171.832C258.605 172.056 257.989 172.168 257.326 172.168ZM267.424 172.168C266.715 172.168 266.071 172 265.492 171.664C264.913 171.319 264.451 170.852 264.106 170.264C263.77 169.667 263.602 168.99 263.602 168.234C263.602 167.487 263.77 166.82 264.106 166.232C264.442 165.644 264.895 165.182 265.464 164.846C266.043 164.501 266.696 164.328 267.424 164.328C268.152 164.328 268.801 164.496 269.37 164.832C269.949 165.168 270.401 165.63 270.728 166.218C271.064 166.806 271.232 167.478 271.232 168.234C271.232 168.999 271.059 169.681 270.714 170.278C270.369 170.866 269.907 171.328 269.328 171.664C268.759 172 268.124 172.168 267.424 172.168ZM267.424 171.118C267.928 171.118 268.381 170.992 268.782 170.74C269.193 170.488 269.515 170.143 269.748 169.704C269.991 169.265 270.112 168.775 270.112 168.234C270.112 167.693 269.991 167.207 269.748 166.778C269.515 166.349 269.193 166.008 268.782 165.756C268.381 165.504 267.928 165.378 267.424 165.378C266.92 165.378 266.463 165.504 266.052 165.756C265.651 166.008 265.329 166.349 265.086 166.778C264.843 167.207 264.722 167.693 264.722 168.234C264.722 168.775 264.843 169.265 265.086 169.704C265.329 170.143 265.651 170.488 266.052 170.74C266.463 170.992 266.92 171.118 267.424 171.118ZM276.598 172.168C275.889 172.168 275.245 172 274.666 171.664C274.087 171.319 273.625 170.852 273.28 170.264C272.944 169.667 272.776 168.99 272.776 168.234C272.776 167.487 272.944 166.82 273.28 166.232C273.616 165.644 274.069 165.182 274.638 164.846C275.217 164.501 275.87 164.328 276.598 164.328C277.326 164.328 277.975 164.496 278.544 164.832C279.123 165.168 279.575 165.63 279.902 166.218C280.238 166.806 280.406 167.478 280.406 168.234C280.406 168.999 280.233 169.681 279.888 170.278C279.543 170.866 279.081 171.328 278.502 171.664C277.933 172 277.298 172.168 276.598 172.168ZM276.598 171.118C277.102 171.118 277.555 170.992 277.956 170.74C278.367 170.488 278.689 170.143 278.922 169.704C279.165 169.265 279.286 168.775 279.286 168.234C279.286 167.693 279.165 167.207 278.922 166.778C278.689 166.349 278.367 166.008 277.956 165.756C277.555 165.504 277.102 165.378 276.598 165.378C276.094 165.378 275.637 165.504 275.226 165.756C274.825 166.008 274.503 166.349 274.26 166.778C274.017 167.207 273.896 167.693 273.896 168.234C273.896 168.775 274.017 169.265 274.26 169.704C274.503 170.143 274.825 170.488 275.226 170.74C275.637 170.992 276.094 171.118 276.598 171.118ZM285.646 172.168C284.946 172.168 284.316 172 283.756 171.664C283.196 171.319 282.752 170.852 282.426 170.264C282.108 169.667 281.95 168.995 281.95 168.248C281.95 167.492 282.108 166.82 282.426 166.232C282.752 165.644 283.191 165.182 283.742 164.846C284.302 164.501 284.936 164.328 285.646 164.328C286.29 164.328 286.864 164.468 287.368 164.748C287.872 165.028 288.268 165.406 288.558 165.882L288.39 166.176V161.402H289.44V172H288.39V170.32L288.558 170.474C288.296 171.015 287.904 171.435 287.382 171.734C286.868 172.023 286.29 172.168 285.646 172.168ZM285.702 171.118C286.206 171.118 286.658 170.992 287.06 170.74C287.47 170.488 287.792 170.147 288.026 169.718C288.268 169.279 288.39 168.789 288.39 168.248C288.39 167.707 288.268 167.221 288.026 166.792C287.792 166.353 287.47 166.008 287.06 165.756C286.658 165.504 286.206 165.378 285.702 165.378C285.207 165.378 284.759 165.504 284.358 165.756C283.956 166.008 283.639 166.349 283.406 166.778C283.182 167.207 283.07 167.697 283.07 168.248C283.07 168.789 283.182 169.279 283.406 169.718C283.639 170.147 283.952 170.488 284.344 170.74C284.745 170.992 285.198 171.118 285.702 171.118ZM297.796 172.168C297.059 172.168 296.41 172.014 295.85 171.706C295.29 171.398 294.856 170.978 294.548 170.446C294.24 169.905 294.086 169.289 294.086 168.598V161.57H295.206V168.598C295.206 169.102 295.314 169.545 295.528 169.928C295.752 170.301 296.056 170.595 296.438 170.81C296.83 171.015 297.283 171.118 297.796 171.118C298.31 171.118 298.758 171.015 299.14 170.81C299.532 170.595 299.836 170.301 300.05 169.928C300.274 169.545 300.386 169.102 300.386 168.598V161.57H301.506V168.598C301.506 169.289 301.352 169.905 301.044 170.446C300.736 170.978 300.302 171.398 299.742 171.706C299.192 172.014 298.543 172.168 297.796 172.168ZM306.381 172.168C305.663 172.168 305.033 171.986 304.491 171.622C303.95 171.258 303.558 170.763 303.315 170.138L304.197 169.718C304.412 170.175 304.711 170.539 305.093 170.81C305.485 171.081 305.915 171.216 306.381 171.216C306.829 171.216 307.207 171.109 307.515 170.894C307.823 170.67 307.977 170.381 307.977 170.026C307.977 169.765 307.903 169.559 307.753 169.41C307.604 169.251 307.431 169.13 307.235 169.046C307.039 168.962 306.867 168.901 306.717 168.864L305.639 168.556C304.949 168.36 304.449 168.085 304.141 167.73C303.833 167.375 303.679 166.965 303.679 166.498C303.679 166.059 303.791 165.677 304.015 165.35C304.239 165.023 304.543 164.771 304.925 164.594C305.308 164.417 305.733 164.328 306.199 164.328C306.834 164.328 307.408 164.496 307.921 164.832C308.444 165.159 308.813 165.616 309.027 166.204L308.131 166.624C307.945 166.204 307.674 165.877 307.319 165.644C306.974 165.401 306.587 165.28 306.157 165.28C305.737 165.28 305.401 165.387 305.149 165.602C304.897 165.817 304.771 166.087 304.771 166.414C304.771 166.666 304.837 166.867 304.967 167.016C305.098 167.165 305.247 167.277 305.415 167.352C305.593 167.427 305.747 167.483 305.877 167.52L307.123 167.884C307.73 168.061 308.201 168.337 308.537 168.71C308.883 169.083 309.055 169.522 309.055 170.026C309.055 170.437 308.939 170.805 308.705 171.132C308.481 171.459 308.169 171.715 307.767 171.902C307.366 172.079 306.904 172.168 306.381 172.168ZM314.316 172.168C313.616 172.168 312.982 172 312.412 171.664C311.852 171.319 311.409 170.847 311.082 170.25C310.756 169.653 310.592 168.976 310.592 168.22C310.592 167.464 310.751 166.797 311.068 166.218C311.386 165.63 311.815 165.168 312.356 164.832C312.907 164.496 313.523 164.328 314.204 164.328C314.746 164.328 315.226 164.431 315.646 164.636C316.076 164.832 316.44 165.103 316.738 165.448C317.037 165.784 317.266 166.167 317.424 166.596C317.583 167.016 317.662 167.45 317.662 167.898C317.662 167.991 317.658 168.099 317.648 168.22C317.639 168.332 317.625 168.449 317.606 168.57H311.264V167.59H317.004L316.5 168.01C316.584 167.497 316.524 167.039 316.318 166.638C316.122 166.227 315.838 165.905 315.464 165.672C315.091 165.429 314.671 165.308 314.204 165.308C313.738 165.308 313.304 165.429 312.902 165.672C312.51 165.915 312.202 166.255 311.978 166.694C311.754 167.123 311.666 167.637 311.712 168.234C311.666 168.831 311.759 169.354 311.992 169.802C312.235 170.241 312.562 170.581 312.972 170.824C313.392 171.067 313.84 171.188 314.316 171.188C314.867 171.188 315.329 171.057 315.702 170.796C316.076 170.535 316.379 170.208 316.612 169.816L317.508 170.292C317.359 170.628 317.13 170.941 316.822 171.23C316.514 171.51 316.146 171.739 315.716 171.916C315.296 172.084 314.83 172.168 314.316 172.168ZM319.514 172V164.496H320.564V165.728L320.424 165.546C320.601 165.191 320.867 164.911 321.222 164.706C321.586 164.501 322.024 164.398 322.538 164.398H323.014V165.448H322.356C321.814 165.448 321.38 165.616 321.054 165.952C320.727 166.288 320.564 166.764 320.564 167.38V172H319.514Z" fill="#4B4B4B"/>
<path d="M625.755 171L629.465 161.921H624.796V160.92H630.564V161.921L626.861 171H625.755Z" fill="#4B4B4B"/>
<rect width="821" height="46" transform="translate(1 189)" fill="#F5FBFF"/>
<path d="M71.7119 218V215.704H66.9239V214.108L71.5999 207.57H73.5879V214.108H75.1139V215.704H73.5879V218H71.7119ZM68.3239 214.794L67.9879 214.108H71.7119V209.068L72.2019 209.222L68.3239 214.794Z" fill="#4B4B4B"/>
<path d="M237.987 218.168C237.25 218.168 236.573 218.037 235.957 217.776C235.341 217.505 234.804 217.132 234.347 216.656C233.899 216.171 233.549 215.601 233.297 214.948C233.045 214.295 232.919 213.576 232.919 212.792C232.919 212.008 233.045 211.289 233.297 210.636C233.549 209.983 233.899 209.413 234.347 208.928C234.804 208.443 235.341 208.069 235.957 207.808C236.573 207.537 237.25 207.402 237.987 207.402C238.696 207.402 239.331 207.528 239.891 207.78C240.46 208.032 240.936 208.359 241.319 208.76C241.711 209.152 241.991 209.567 242.159 210.006L241.109 210.468C240.848 209.861 240.446 209.376 239.905 209.012C239.373 208.639 238.734 208.452 237.987 208.452C237.222 208.452 236.54 208.634 235.943 208.998C235.346 209.362 234.879 209.871 234.543 210.524C234.207 211.168 234.039 211.924 234.039 212.792C234.039 213.651 234.207 214.407 234.543 215.06C234.879 215.713 235.346 216.222 235.943 216.586C236.54 216.941 237.222 217.118 237.987 217.118C238.734 217.118 239.373 216.936 239.905 216.572C240.446 216.208 240.848 215.723 241.109 215.116L242.159 215.578C241.991 216.007 241.711 216.423 241.319 216.824C240.936 217.216 240.46 217.538 239.891 217.79C239.331 218.042 238.696 218.168 237.987 218.168ZM247.388 218.168C246.679 218.168 246.035 218 245.456 217.664C244.877 217.319 244.415 216.852 244.07 216.264C243.734 215.667 243.566 214.99 243.566 214.234C243.566 213.487 243.734 212.82 244.07 212.232C244.406 211.644 244.859 211.182 245.428 210.846C246.007 210.501 246.66 210.328 247.388 210.328C248.116 210.328 248.765 210.496 249.334 210.832C249.913 211.168 250.365 211.63 250.692 212.218C251.028 212.806 251.196 213.478 251.196 214.234C251.196 214.999 251.023 215.681 250.678 216.278C250.333 216.866 249.871 217.328 249.292 217.664C248.723 218 248.088 218.168 247.388 218.168ZM247.388 217.118C247.892 217.118 248.345 216.992 248.746 216.74C249.157 216.488 249.479 216.143 249.712 215.704C249.955 215.265 250.076 214.775 250.076 214.234C250.076 213.693 249.955 213.207 249.712 212.778C249.479 212.349 249.157 212.008 248.746 211.756C248.345 211.504 247.892 211.378 247.388 211.378C246.884 211.378 246.427 211.504 246.016 211.756C245.615 212.008 245.293 212.349 245.05 212.778C244.807 213.207 244.686 213.693 244.686 214.234C244.686 214.775 244.807 215.265 245.05 215.704C245.293 216.143 245.615 216.488 246.016 216.74C246.427 216.992 246.884 217.118 247.388 217.118ZM253.048 218V210.496H254.098V211.924L253.93 211.714C254.135 211.275 254.438 210.935 254.84 210.692C255.25 210.449 255.698 210.328 256.184 210.328C256.762 210.328 257.285 210.491 257.752 210.818C258.218 211.145 258.55 211.569 258.746 212.092L258.452 212.106C258.638 211.527 258.96 211.089 259.418 210.79C259.884 210.482 260.398 210.328 260.958 210.328C261.462 210.328 261.924 210.449 262.344 210.692C262.773 210.935 263.114 211.271 263.366 211.7C263.627 212.12 263.758 212.596 263.758 213.128V218H262.708V213.534C262.708 213.077 262.624 212.689 262.456 212.372C262.297 212.055 262.078 211.812 261.798 211.644C261.518 211.467 261.196 211.378 260.832 211.378C260.477 211.378 260.155 211.467 259.866 211.644C259.576 211.812 259.348 212.059 259.18 212.386C259.012 212.703 258.928 213.086 258.928 213.534V218H257.878V213.534C257.878 213.077 257.794 212.689 257.626 212.372C257.467 212.055 257.248 211.812 256.968 211.644C256.688 211.467 256.366 211.378 256.002 211.378C255.638 211.378 255.311 211.467 255.022 211.644C254.742 211.812 254.518 212.059 254.35 212.386C254.182 212.703 254.098 213.086 254.098 213.534V218H253.048ZM265.763 220.8V210.496H266.813V212.176L266.645 211.882C266.943 211.406 267.34 211.028 267.835 210.748C268.339 210.468 268.913 210.328 269.557 210.328C270.266 210.328 270.896 210.501 271.447 210.846C272.007 211.182 272.445 211.644 272.763 212.232C273.089 212.82 273.253 213.492 273.253 214.248C273.253 214.995 273.089 215.667 272.763 216.264C272.445 216.852 272.007 217.319 271.447 217.664C270.896 218 270.266 218.168 269.557 218.168C268.913 218.168 268.329 218.023 267.807 217.734C267.293 217.435 266.906 217.015 266.645 216.474L266.813 216.32V220.8H265.763ZM269.501 217.118C270.005 217.118 270.453 216.992 270.845 216.74C271.246 216.488 271.559 216.147 271.783 215.718C272.016 215.279 272.133 214.789 272.133 214.248C272.133 213.697 272.016 213.207 271.783 212.778C271.559 212.349 271.246 212.008 270.845 211.756C270.453 211.504 270.005 211.378 269.501 211.378C268.997 211.378 268.539 211.504 268.129 211.756C267.727 212.008 267.405 212.353 267.163 212.792C266.929 213.221 266.813 213.707 266.813 214.248C266.813 214.789 266.929 215.279 267.163 215.718C267.405 216.147 267.727 216.488 268.129 216.74C268.539 216.992 268.997 217.118 269.501 217.118ZM278.516 218.168C277.816 218.168 277.182 218 276.612 217.664C276.052 217.319 275.609 216.847 275.282 216.25C274.956 215.653 274.792 214.976 274.792 214.22C274.792 213.464 274.951 212.797 275.268 212.218C275.586 211.63 276.015 211.168 276.556 210.832C277.107 210.496 277.723 210.328 278.404 210.328C278.946 210.328 279.426 210.431 279.846 210.636C280.276 210.832 280.64 211.103 280.938 211.448C281.237 211.784 281.466 212.167 281.624 212.596C281.783 213.016 281.862 213.45 281.862 213.898C281.862 213.991 281.858 214.099 281.848 214.22C281.839 214.332 281.825 214.449 281.806 214.57H275.464V213.59H281.204L280.7 214.01C280.784 213.497 280.724 213.039 280.518 212.638C280.322 212.227 280.038 211.905 279.664 211.672C279.291 211.429 278.871 211.308 278.404 211.308C277.938 211.308 277.504 211.429 277.102 211.672C276.71 211.915 276.402 212.255 276.178 212.694C275.954 213.123 275.866 213.637 275.912 214.234C275.866 214.831 275.959 215.354 276.192 215.802C276.435 216.241 276.762 216.581 277.172 216.824C277.592 217.067 278.04 217.188 278.516 217.188C279.067 217.188 279.529 217.057 279.902 216.796C280.276 216.535 280.579 216.208 280.812 215.816L281.708 216.292C281.559 216.628 281.33 216.941 281.022 217.23C280.714 217.51 280.346 217.739 279.916 217.916C279.496 218.084 279.03 218.168 278.516 218.168ZM286.584 218.084C285.912 218.084 285.394 217.888 285.03 217.496C284.666 217.104 284.484 216.544 284.484 215.816V211.546H283.098V210.496H283.448C283.765 210.496 284.017 210.393 284.204 210.188C284.39 209.973 284.484 209.707 284.484 209.39V208.76H285.534V210.496H287.186V211.546H285.534V215.816C285.534 216.068 285.571 216.292 285.646 216.488C285.72 216.675 285.846 216.824 286.024 216.936C286.21 217.048 286.458 217.104 286.766 217.104C286.84 217.104 286.929 217.099 287.032 217.09C287.134 217.081 287.223 217.071 287.298 217.062V218C287.186 218.028 287.06 218.047 286.92 218.056C286.78 218.075 286.668 218.084 286.584 218.084ZM292.284 218.168C291.584 218.168 290.949 218 290.38 217.664C289.82 217.319 289.377 216.847 289.05 216.25C288.723 215.653 288.56 214.976 288.56 214.22C288.56 213.464 288.719 212.797 289.036 212.218C289.353 211.63 289.783 211.168 290.324 210.832C290.875 210.496 291.491 210.328 292.172 210.328C292.713 210.328 293.194 210.431 293.614 210.636C294.043 210.832 294.407 211.103 294.706 211.448C295.005 211.784 295.233 212.167 295.392 212.596C295.551 213.016 295.63 213.45 295.63 213.898C295.63 213.991 295.625 214.099 295.616 214.22C295.607 214.332 295.593 214.449 295.574 214.57H289.232V213.59H294.972L294.468 214.01C294.552 213.497 294.491 213.039 294.286 212.638C294.09 212.227 293.805 211.905 293.432 211.672C293.059 211.429 292.639 211.308 292.172 211.308C291.705 211.308 291.271 211.429 290.87 211.672C290.478 211.915 290.17 212.255 289.946 212.694C289.722 213.123 289.633 213.637 289.68 214.234C289.633 214.831 289.727 215.354 289.96 215.802C290.203 216.241 290.529 216.581 290.94 216.824C291.36 217.067 291.808 217.188 292.284 217.188C292.835 217.188 293.297 217.057 293.67 216.796C294.043 216.535 294.347 216.208 294.58 215.816L295.476 216.292C295.327 216.628 295.098 216.941 294.79 217.23C294.482 217.51 294.113 217.739 293.684 217.916C293.264 218.084 292.797 218.168 292.284 218.168ZM297.481 218V210.496H298.531V211.952L298.293 211.896C298.48 211.411 298.783 211.028 299.203 210.748C299.633 210.468 300.127 210.328 300.687 210.328C301.219 210.328 301.695 210.449 302.115 210.692C302.545 210.935 302.881 211.271 303.123 211.7C303.375 212.12 303.501 212.596 303.501 213.128V218H302.451V213.534C302.451 213.077 302.367 212.689 302.199 212.372C302.041 212.055 301.812 211.812 301.513 211.644C301.224 211.467 300.888 211.378 300.505 211.378C300.123 211.378 299.782 211.467 299.483 211.644C299.185 211.812 298.951 212.059 298.783 212.386C298.615 212.703 298.531 213.086 298.531 213.534V218H297.481ZM308.377 218.084C307.705 218.084 307.187 217.888 306.823 217.496C306.459 217.104 306.277 216.544 306.277 215.816V211.546H304.891V210.496H305.241C305.558 210.496 305.81 210.393 305.997 210.188C306.183 209.973 306.277 209.707 306.277 209.39V208.76H307.327V210.496H308.979V211.546H307.327V215.816C307.327 216.068 307.364 216.292 307.439 216.488C307.513 216.675 307.639 216.824 307.817 216.936C308.003 217.048 308.251 217.104 308.559 217.104C308.633 217.104 308.722 217.099 308.825 217.09C308.927 217.081 309.016 217.071 309.091 217.062V218C308.979 218.028 308.853 218.047 308.713 218.056C308.573 218.075 308.461 218.084 308.377 218.084ZM317.135 218.168C316.398 218.168 315.749 218.014 315.189 217.706C314.629 217.398 314.195 216.978 313.887 216.446C313.579 215.905 313.425 215.289 313.425 214.598V207.57H314.545V214.598C314.545 215.102 314.653 215.545 314.867 215.928C315.091 216.301 315.395 216.595 315.777 216.81C316.169 217.015 316.622 217.118 317.135 217.118C317.649 217.118 318.097 217.015 318.479 216.81C318.871 216.595 319.175 216.301 319.389 215.928C319.613 215.545 319.725 215.102 319.725 214.598V207.57H320.845V214.598C320.845 215.289 320.691 215.905 320.383 216.446C320.075 216.978 319.641 217.398 319.081 217.706C318.531 218.014 317.882 218.168 317.135 218.168ZM325.72 218.168C325.001 218.168 324.371 217.986 323.83 217.622C323.289 217.258 322.897 216.763 322.654 216.138L323.536 215.718C323.751 216.175 324.049 216.539 324.432 216.81C324.824 217.081 325.253 217.216 325.72 217.216C326.168 217.216 326.546 217.109 326.854 216.894C327.162 216.67 327.316 216.381 327.316 216.026C327.316 215.765 327.241 215.559 327.092 215.41C326.943 215.251 326.77 215.13 326.574 215.046C326.378 214.962 326.205 214.901 326.056 214.864L324.978 214.556C324.287 214.36 323.788 214.085 323.48 213.73C323.172 213.375 323.018 212.965 323.018 212.498C323.018 212.059 323.13 211.677 323.354 211.35C323.578 211.023 323.881 210.771 324.264 210.594C324.647 210.417 325.071 210.328 325.538 210.328C326.173 210.328 326.747 210.496 327.26 210.832C327.783 211.159 328.151 211.616 328.366 212.204L327.47 212.624C327.283 212.204 327.013 211.877 326.658 211.644C326.313 211.401 325.925 211.28 325.496 211.28C325.076 211.28 324.74 211.387 324.488 211.602C324.236 211.817 324.11 212.087 324.11 212.414C324.11 212.666 324.175 212.867 324.306 213.016C324.437 213.165 324.586 213.277 324.754 213.352C324.931 213.427 325.085 213.483 325.216 213.52L326.462 213.884C327.069 214.061 327.54 214.337 327.876 214.71C328.221 215.083 328.394 215.522 328.394 216.026C328.394 216.437 328.277 216.805 328.044 217.132C327.82 217.459 327.507 217.715 327.106 217.902C326.705 218.079 326.243 218.168 325.72 218.168ZM333.655 218.168C332.955 218.168 332.32 218 331.751 217.664C331.191 217.319 330.748 216.847 330.421 216.25C330.094 215.653 329.931 214.976 329.931 214.22C329.931 213.464 330.09 212.797 330.407 212.218C330.724 211.63 331.154 211.168 331.695 210.832C332.246 210.496 332.862 210.328 333.543 210.328C334.084 210.328 334.565 210.431 334.985 210.636C335.414 210.832 335.778 211.103 336.077 211.448C336.376 211.784 336.604 212.167 336.763 212.596C336.922 213.016 337.001 213.45 337.001 213.898C337.001 213.991 336.996 214.099 336.987 214.22C336.978 214.332 336.964 214.449 336.945 214.57H330.603V213.59H336.343L335.839 214.01C335.923 213.497 335.862 213.039 335.657 212.638C335.461 212.227 335.176 211.905 334.803 211.672C334.43 211.429 334.01 211.308 333.543 211.308C333.076 211.308 332.642 211.429 332.241 211.672C331.849 211.915 331.541 212.255 331.317 212.694C331.093 213.123 331.004 213.637 331.051 214.234C331.004 214.831 331.098 215.354 331.331 215.802C331.574 216.241 331.9 216.581 332.311 216.824C332.731 217.067 333.179 217.188 333.655 217.188C334.206 217.188 334.668 217.057 335.041 216.796C335.414 216.535 335.718 216.208 335.951 215.816L336.847 216.292C336.698 216.628 336.469 216.941 336.161 217.23C335.853 217.51 335.484 217.739 335.055 217.916C334.635 218.084 334.168 218.168 333.655 218.168ZM338.852 218V210.496H339.902V211.728L339.762 211.546C339.94 211.191 340.206 210.911 340.56 210.706C340.924 210.501 341.363 210.398 341.876 210.398H342.352V211.448H341.694C341.153 211.448 340.719 211.616 340.392 211.952C340.066 212.288 339.902 212.764 339.902 213.38V218H338.852Z" fill="#4B4B4B"/>
<path d="M627.798 217.21C627.168 217.21 626.594 217.058 626.076 216.755C625.563 216.447 625.152 216.032 624.844 215.509C624.541 214.982 624.389 214.389 624.389 213.731V210.238C624.389 209.561 624.541 208.959 624.844 208.432C625.148 207.9 625.561 207.482 626.083 207.179C626.611 206.871 627.208 206.717 627.875 206.717C628.449 206.717 628.981 206.843 629.471 207.095C629.966 207.347 630.37 207.699 630.682 208.152L629.891 208.803C629.677 208.467 629.392 208.199 629.037 207.998C628.683 207.797 628.295 207.697 627.875 207.697C627.404 207.697 626.984 207.811 626.615 208.04C626.247 208.269 625.957 208.57 625.747 208.943C625.537 209.312 625.432 209.713 625.432 210.147V212.345L625.173 212.051C625.467 211.589 625.852 211.216 626.328 210.931C626.809 210.646 627.332 210.504 627.896 210.504C628.522 210.504 629.084 210.653 629.583 210.952C630.083 211.246 630.479 211.645 630.773 212.149C631.067 212.653 631.214 213.218 631.214 213.843C631.214 214.464 631.058 215.028 630.745 215.537C630.437 216.046 630.024 216.452 629.506 216.755C628.993 217.058 628.424 217.21 627.798 217.21ZM627.798 216.209C628.237 216.209 628.636 216.104 628.995 215.894C629.359 215.684 629.646 215.399 629.856 215.04C630.071 214.681 630.178 214.282 630.178 213.843C630.178 213.404 630.071 213.005 629.856 212.646C629.646 212.282 629.362 211.995 629.002 211.785C628.643 211.57 628.244 211.463 627.805 211.463C627.367 211.463 626.968 211.57 626.608 211.785C626.249 211.995 625.962 212.282 625.747 212.646C625.537 213.005 625.432 213.404 625.432 213.843C625.432 214.277 625.537 214.674 625.747 215.033C625.957 215.392 626.242 215.679 626.601 215.894C626.961 216.104 627.36 216.209 627.798 216.209Z" fill="#4B4B4B"/>
<path d="M70.8514 264.168C70.3007 264.168 69.7734 264.065 69.2694 263.86C68.7747 263.655 68.3454 263.365 67.9814 262.992C67.6267 262.609 67.384 262.157 67.2534 261.634L68.9054 261.046C69.064 261.522 69.3207 261.877 69.6754 262.11C70.03 262.334 70.422 262.446 70.8514 262.446C71.206 262.446 71.5187 262.371 71.7894 262.222C72.0694 262.063 72.284 261.849 72.4334 261.578C72.5827 261.298 72.6574 260.976 72.6574 260.612C72.6574 260.248 72.578 259.931 72.4194 259.66C72.27 259.389 72.06 259.179 71.7894 259.03C71.5187 258.871 71.206 258.792 70.8514 258.792C70.4874 258.792 70.156 258.871 69.8574 259.03C69.568 259.189 69.358 259.417 69.2274 259.716L67.6734 259.366L68.4994 253.57H74.1834V255.18H69.2554L69.9694 254.354L69.3814 258.722L68.8354 258.274C69.0967 257.891 69.414 257.611 69.7874 257.434C70.17 257.257 70.632 257.168 71.1734 257.168C71.864 257.168 72.4614 257.317 72.9654 257.616C73.4787 257.915 73.8754 258.321 74.1554 258.834C74.4354 259.347 74.5754 259.94 74.5754 260.612C74.5754 261.284 74.412 261.891 74.0854 262.432C73.7587 262.973 73.3154 263.398 72.7554 263.706C72.1954 264.014 71.5607 264.168 70.8514 264.168Z" fill="#4B4B4B"/>
<path d="M246.468 264V253.57H247.448L251.368 259.254H250.822L254.728 253.57H255.708V264H254.588V255.082L254.952 255.222L251.116 260.78H251.06L247.238 255.222L247.588 255.082V264H246.468ZM261.531 264.168C260.822 264.168 260.178 264 259.599 263.664C259.021 263.319 258.559 262.852 258.213 262.264C257.877 261.667 257.709 260.99 257.709 260.234C257.709 259.487 257.877 258.82 258.213 258.232C258.549 257.644 259.002 257.182 259.571 256.846C260.15 256.501 260.803 256.328 261.531 256.328C262.259 256.328 262.908 256.496 263.477 256.832C264.056 257.168 264.509 257.63 264.835 258.218C265.171 258.806 265.339 259.478 265.339 260.234C265.339 260.999 265.167 261.681 264.821 262.278C264.476 262.866 264.014 263.328 263.435 263.664C262.866 264 262.231 264.168 261.531 264.168ZM261.531 263.118C262.035 263.118 262.488 262.992 262.889 262.74C263.3 262.488 263.622 262.143 263.855 261.704C264.098 261.265 264.219 260.775 264.219 260.234C264.219 259.693 264.098 259.207 263.855 258.778C263.622 258.349 263.3 258.008 262.889 257.756C262.488 257.504 262.035 257.378 261.531 257.378C261.027 257.378 260.57 257.504 260.159 257.756C259.758 258.008 259.436 258.349 259.193 258.778C258.951 259.207 258.829 259.693 258.829 260.234C258.829 260.775 258.951 261.265 259.193 261.704C259.436 262.143 259.758 262.488 260.159 262.74C260.57 262.992 261.027 263.118 261.531 263.118ZM270.579 264.168C269.879 264.168 269.249 264 268.689 263.664C268.129 263.319 267.686 262.852 267.359 262.264C267.042 261.667 266.883 260.995 266.883 260.248C266.883 259.492 267.042 258.82 267.359 258.232C267.686 257.644 268.125 257.182 268.675 256.846C269.235 256.501 269.87 256.328 270.579 256.328C271.223 256.328 271.797 256.468 272.301 256.748C272.805 257.028 273.202 257.406 273.491 257.882L273.323 258.176V253.402H274.373V264H273.323V262.32L273.491 262.474C273.23 263.015 272.838 263.435 272.315 263.734C271.802 264.023 271.223 264.168 270.579 264.168ZM270.635 263.118C271.139 263.118 271.592 262.992 271.993 262.74C272.404 262.488 272.726 262.147 272.959 261.718C273.202 261.279 273.323 260.789 273.323 260.248C273.323 259.707 273.202 259.221 272.959 258.792C272.726 258.353 272.404 258.008 271.993 257.756C271.592 257.504 271.139 257.378 270.635 257.378C270.141 257.378 269.693 257.504 269.291 257.756C268.89 258.008 268.573 258.349 268.339 258.778C268.115 259.207 268.003 259.697 268.003 260.248C268.003 260.789 268.115 261.279 268.339 261.718C268.573 262.147 268.885 262.488 269.277 262.74C269.679 262.992 270.131 263.118 270.635 263.118ZM279.945 264.168C279.245 264.168 278.611 264 278.041 263.664C277.481 263.319 277.038 262.847 276.711 262.25C276.385 261.653 276.221 260.976 276.221 260.22C276.221 259.464 276.38 258.797 276.697 258.218C277.015 257.63 277.444 257.168 277.985 256.832C278.536 256.496 279.152 256.328 279.833 256.328C280.375 256.328 280.855 256.431 281.275 256.636C281.705 256.832 282.069 257.103 282.367 257.448C282.666 257.784 282.895 258.167 283.053 258.596C283.212 259.016 283.291 259.45 283.291 259.898C283.291 259.991 283.287 260.099 283.277 260.22C283.268 260.332 283.254 260.449 283.235 260.57H276.893V259.59H282.633L282.129 260.01C282.213 259.497 282.153 259.039 281.947 258.638C281.751 258.227 281.467 257.905 281.093 257.672C280.72 257.429 280.3 257.308 279.833 257.308C279.367 257.308 278.933 257.429 278.531 257.672C278.139 257.915 277.831 258.255 277.607 258.694C277.383 259.123 277.295 259.637 277.341 260.234C277.295 260.831 277.388 261.354 277.621 261.802C277.864 262.241 278.191 262.581 278.601 262.824C279.021 263.067 279.469 263.188 279.945 263.188C280.496 263.188 280.958 263.057 281.331 262.796C281.705 262.535 282.008 262.208 282.241 261.816L283.137 262.292C282.988 262.628 282.759 262.941 282.451 263.23C282.143 263.51 281.775 263.739 281.345 263.916C280.925 264.084 280.459 264.168 279.945 264.168ZM287.746 264.168C287.028 264.168 286.398 263.986 285.856 263.622C285.315 263.258 284.923 262.763 284.68 262.138L285.562 261.718C285.777 262.175 286.076 262.539 286.458 262.81C286.85 263.081 287.28 263.216 287.746 263.216C288.194 263.216 288.572 263.109 288.88 262.894C289.188 262.67 289.342 262.381 289.342 262.026C289.342 261.765 289.268 261.559 289.118 261.41C288.969 261.251 288.796 261.13 288.6 261.046C288.404 260.962 288.232 260.901 288.082 260.864L287.004 260.556C286.314 260.36 285.814 260.085 285.506 259.73C285.198 259.375 285.044 258.965 285.044 258.498C285.044 258.059 285.156 257.677 285.38 257.35C285.604 257.023 285.908 256.771 286.29 256.594C286.673 256.417 287.098 256.328 287.564 256.328C288.199 256.328 288.773 256.496 289.286 256.832C289.809 257.159 290.178 257.616 290.392 258.204L289.496 258.624C289.31 258.204 289.039 257.877 288.684 257.644C288.339 257.401 287.952 257.28 287.522 257.28C287.102 257.28 286.766 257.387 286.514 257.602C286.262 257.817 286.136 258.087 286.136 258.414C286.136 258.666 286.202 258.867 286.332 259.016C286.463 259.165 286.612 259.277 286.78 259.352C286.958 259.427 287.112 259.483 287.242 259.52L288.488 259.884C289.095 260.061 289.566 260.337 289.902 260.71C290.248 261.083 290.42 261.522 290.42 262.026C290.42 262.437 290.304 262.805 290.07 263.132C289.846 263.459 289.534 263.715 289.132 263.902C288.731 264.079 288.269 264.168 287.746 264.168ZM295.136 264.084C294.464 264.084 293.946 263.888 293.582 263.496C293.218 263.104 293.035 262.544 293.035 261.816V257.546H291.649V256.496H292C292.317 256.496 292.569 256.393 292.756 256.188C292.942 255.973 293.035 255.707 293.035 255.39V254.76H294.086V256.496H295.738V257.546H294.086V261.816C294.086 262.068 294.123 262.292 294.198 262.488C294.272 262.675 294.398 262.824 294.576 262.936C294.762 263.048 295.01 263.104 295.318 263.104C295.392 263.104 295.481 263.099 295.584 263.09C295.686 263.081 295.775 263.071 295.85 263.062V264C295.738 264.028 295.612 264.047 295.472 264.056C295.332 264.075 295.22 264.084 295.136 264.084ZM303.894 264.168C303.157 264.168 302.508 264.014 301.948 263.706C301.388 263.398 300.954 262.978 300.646 262.446C300.338 261.905 300.184 261.289 300.184 260.598V253.57H301.304V260.598C301.304 261.102 301.411 261.545 301.626 261.928C301.85 262.301 302.153 262.595 302.536 262.81C302.928 263.015 303.381 263.118 303.894 263.118C304.407 263.118 304.855 263.015 305.238 262.81C305.63 262.595 305.933 262.301 306.148 261.928C306.372 261.545 306.484 261.102 306.484 260.598V253.57H307.604V260.598C307.604 261.289 307.45 261.905 307.142 262.446C306.834 262.978 306.4 263.398 305.84 263.706C305.289 264.014 304.641 264.168 303.894 264.168ZM312.479 264.168C311.76 264.168 311.13 263.986 310.589 263.622C310.048 263.258 309.656 262.763 309.413 262.138L310.295 261.718C310.51 262.175 310.808 262.539 311.191 262.81C311.583 263.081 312.012 263.216 312.479 263.216C312.927 263.216 313.305 263.109 313.613 262.894C313.921 262.67 314.075 262.381 314.075 262.026C314.075 261.765 314 261.559 313.851 261.41C313.702 261.251 313.529 261.13 313.333 261.046C313.137 260.962 312.964 260.901 312.815 260.864L311.737 260.556C311.046 260.36 310.547 260.085 310.239 259.73C309.931 259.375 309.777 258.965 309.777 258.498C309.777 258.059 309.889 257.677 310.113 257.35C310.337 257.023 310.64 256.771 311.023 256.594C311.406 256.417 311.83 256.328 312.297 256.328C312.932 256.328 313.506 256.496 314.019 256.832C314.542 257.159 314.91 257.616 315.125 258.204L314.229 258.624C314.042 258.204 313.772 257.877 313.417 257.644C313.072 257.401 312.684 257.28 312.255 257.28C311.835 257.28 311.499 257.387 311.247 257.602C310.995 257.817 310.869 258.087 310.869 258.414C310.869 258.666 310.934 258.867 311.065 259.016C311.196 259.165 311.345 259.277 311.513 259.352C311.69 259.427 311.844 259.483 311.975 259.52L313.221 259.884C313.828 260.061 314.299 260.337 314.635 260.71C314.98 261.083 315.153 261.522 315.153 262.026C315.153 262.437 315.036 262.805 314.803 263.132C314.579 263.459 314.266 263.715 313.865 263.902C313.464 264.079 313.002 264.168 312.479 264.168ZM320.414 264.168C319.714 264.168 319.079 264 318.51 263.664C317.95 263.319 317.507 262.847 317.18 262.25C316.853 261.653 316.69 260.976 316.69 260.22C316.69 259.464 316.849 258.797 317.166 258.218C317.483 257.63 317.913 257.168 318.454 256.832C319.005 256.496 319.621 256.328 320.302 256.328C320.843 256.328 321.324 256.431 321.744 256.636C322.173 256.832 322.537 257.103 322.836 257.448C323.135 257.784 323.363 258.167 323.522 258.596C323.681 259.016 323.76 259.45 323.76 259.898C323.76 259.991 323.755 260.099 323.746 260.22C323.737 260.332 323.723 260.449 323.704 260.57H317.362V259.59H323.102L322.598 260.01C322.682 259.497 322.621 259.039 322.416 258.638C322.22 258.227 321.935 257.905 321.562 257.672C321.189 257.429 320.769 257.308 320.302 257.308C319.835 257.308 319.401 257.429 319 257.672C318.608 257.915 318.3 258.255 318.076 258.694C317.852 259.123 317.763 259.637 317.81 260.234C317.763 260.831 317.857 261.354 318.09 261.802C318.333 262.241 318.659 262.581 319.07 262.824C319.49 263.067 319.938 263.188 320.414 263.188C320.965 263.188 321.427 263.057 321.8 262.796C322.173 262.535 322.477 262.208 322.71 261.816L323.606 262.292C323.457 262.628 323.228 262.941 322.92 263.23C322.612 263.51 322.243 263.739 321.814 263.916C321.394 264.084 320.927 264.168 320.414 264.168ZM325.611 264V256.496H326.661V257.728L326.521 257.546C326.699 257.191 326.965 256.911 327.319 256.706C327.683 256.501 328.122 256.398 328.635 256.398H329.111V257.448H328.453C327.912 257.448 327.478 257.616 327.151 257.952C326.825 258.288 326.661 258.764 326.661 259.38V264H325.611Z" fill="#4B4B4B"/>
<path d="M627.665 263.21C627.142 263.21 626.659 263.103 626.216 262.888C625.773 262.673 625.395 262.377 625.082 261.999C624.769 261.621 624.545 261.187 624.41 260.697L625.397 260.431C625.486 260.795 625.647 261.11 625.88 261.376C626.113 261.637 626.386 261.84 626.699 261.985C627.016 262.13 627.348 262.202 627.693 262.202C628.141 262.202 628.542 262.095 628.897 261.88C629.256 261.661 629.541 261.371 629.751 261.012C629.961 260.653 630.066 260.258 630.066 259.829C630.066 259.386 629.956 258.987 629.737 258.632C629.518 258.273 629.228 257.988 628.869 257.778C628.51 257.568 628.118 257.463 627.693 257.463C627.217 257.463 626.806 257.568 626.461 257.778C626.116 257.983 625.84 258.242 625.635 258.555L624.697 258.163L625.005 252.92H630.388V253.907H625.46L625.971 253.424L625.698 257.897L625.439 257.554C625.728 257.223 626.078 256.964 626.489 256.777C626.9 256.59 627.331 256.497 627.784 256.497C628.405 256.497 628.965 256.646 629.464 256.945C629.963 257.239 630.36 257.638 630.654 258.142C630.948 258.646 631.095 259.208 631.095 259.829C631.095 260.445 630.939 261.01 630.626 261.523C630.313 262.032 629.898 262.44 629.38 262.748C628.862 263.056 628.29 263.21 627.665 263.21Z" fill="#4B4B4B"/>
</svg>
