<svg width="64" height="64" viewBox="0 0 64 64" fill="none" xmlns="http://www.w3.org/2000/svg">
<path fill-rule="evenodd" clip-rule="evenodd" d="M19.2386 7.9883C14.8879 8.44098 10.7061 10.5953 7.84836 13.856C5.59564 16.4263 4.19311 19.4409 3.63876 22.9039C3.3874 24.474 3.37982 50.0222 3.63029 51.082C4.07607 52.9674 5.44415 54.6473 7.20952 55.4766C8.54773 56.1054 8.77257 56.121 16.5541 56.1231C21.2725 56.1243 23.927 56.0833 24.4129 56.0014C24.8164 55.9335 25.5657 55.6841 26.078 55.4471C27.734 54.6813 29.1343 53.0155 29.6317 51.2198C29.8107 50.5734 29.8284 49.8306 29.8284 42.9482C29.8284 34.5617 29.8426 34.7459 29.0795 33.2867C28.5691 32.3108 27.1475 30.9326 26.1608 30.4571C24.8398 29.8205 24.4024 29.7756 19.5097 29.7734C14.2449 29.7712 14.2332 29.7693 13.2549 28.7728C12.4588 27.9618 12.2713 27.4007 12.2725 25.8316C12.2745 23.0702 13.0592 21.0677 14.8262 19.3143C16.1436 18.0071 17.493 17.2492 19.0969 16.9156C19.5413 16.8232 20.8423 16.7123 21.9881 16.6694L24.0713 16.5912L24.4975 16.2529C24.7319 16.0669 25.0382 15.6924 25.1782 15.4208C25.4264 14.9395 25.432 14.8555 25.4012 12.1371L25.3695 9.34745L25.0504 8.88832C24.8512 8.60165 24.5183 8.32333 24.1646 8.14753C23.6262 7.87988 23.5114 7.86665 21.8642 7.88066C20.9105 7.88878 19.7291 7.93726 19.2386 7.9883ZM50.0046 7.98407C45.1922 8.45832 40.5657 11.0815 37.6623 14.9824C35.9564 17.2744 34.7856 20.12 34.3225 23.0997C34.2073 23.8422 34.1757 26.8826 34.1757 37.2772C34.1757 51.9896 34.1321 51.0978 34.926 52.6097C35.464 53.6342 36.7902 54.9159 37.8144 55.4011C39.321 56.1148 39.4044 56.1211 47.3851 56.1211C55.2385 56.1211 55.4543 56.1063 56.7946 55.4766C58.5599 54.6473 59.928 52.9674 60.3738 51.082C60.6187 50.0459 60.6119 35.822 60.366 34.7812C60.0841 33.5883 59.5761 32.7 58.637 31.7577C57.6526 30.77 56.4036 30.0967 55.1789 29.8934C54.7346 29.8195 52.7246 29.7715 50.0833 29.7715C45.9634 29.7715 45.6876 29.7589 45.1125 29.5442C44.414 29.2836 43.7172 28.6601 43.3521 27.9691C43.1357 27.5595 43.094 27.2839 43.058 26.0223C42.9724 23.0252 43.7865 20.9702 45.8092 19.0782C47.7718 17.2426 49.5525 16.6651 53.293 16.6514C54.7933 16.6459 55.2266 16.4756 55.7965 15.6672L56.1355 15.1862L56.1719 12.5547C56.212 9.64667 56.1637 9.31876 55.6019 8.68049C54.9788 7.97251 54.5921 7.86898 52.6242 7.88344C51.6739 7.89044 50.4951 7.9357 50.0046 7.98407Z" fill="#0795FE"/>
</svg>
