<svg width="64" height="64" viewBox="0 0 64 64" fill="none" xmlns="http://www.w3.org/2000/svg">
<path fill-rule="evenodd" clip-rule="evenodd" d="M44.7614 56.0117C49.1121 55.559 53.2939 53.4047 56.1516 50.144C58.4044 47.5737 59.8069 44.5591 60.3612 41.0961C60.6126 39.526 60.6202 13.9778 60.3697 12.918C59.9239 11.0326 58.5559 9.35271 56.7905 8.52341C55.4523 7.8946 55.2274 7.87903 47.4459 7.87692C42.7275 7.87569 40.073 7.91672 39.5871 7.99856C39.1836 8.0665 38.4343 8.31592 37.922 8.55288C36.266 9.31869 34.8657 10.9845 34.3683 12.7802C34.1893 13.4266 34.1717 14.1694 34.1717 21.0518C34.1717 29.4383 34.1574 29.2541 34.9205 30.7133C35.4309 31.6892 36.8525 33.0674 37.8392 33.5429C39.1602 34.1795 39.5976 34.2244 44.4903 34.2266C49.7551 34.2288 49.7668 34.2307 50.7451 35.2272C51.5412 36.0382 51.7287 36.5993 51.7275 38.1684C51.7255 40.9298 50.9408 42.9323 49.1738 44.6857C47.8564 45.9929 46.507 46.7508 44.9031 47.0844C44.4587 47.1768 43.1577 47.2877 42.0119 47.3306L39.9287 47.4088L39.5025 47.7471C39.2681 47.9331 38.9618 48.3076 38.8218 48.5792C38.5736 49.0605 38.568 49.1445 38.5988 51.8629L38.6305 54.6526L38.9496 55.1117C39.1488 55.3983 39.4817 55.6767 39.8354 55.8525C40.3738 56.1201 40.4886 56.1334 42.1358 56.1193C43.0895 56.1112 44.2709 56.0627 44.7614 56.0117ZM13.9954 56.0159C18.8078 55.5417 23.4343 52.9184 26.3377 49.0176C28.0436 46.7256 29.2144 43.88 29.6775 40.9003C29.7927 40.1578 29.8243 37.1174 29.8243 26.7228C29.8243 12.0104 29.8679 12.9022 29.074 11.3903C28.536 10.3658 27.2098 9.08407 26.1856 8.59892C24.679 7.88515 24.5956 7.87892 16.6149 7.87892C8.76147 7.87892 8.54566 7.8937 7.20544 8.52341C5.44008 9.35271 4.07199 11.0325 3.62622 12.918C3.38131 13.9541 3.38811 28.178 3.63402 29.2188C3.91593 30.4117 4.4239 31.3 5.36304 32.2423C6.34744 33.23 7.59637 33.9032 8.8211 34.1066C9.26542 34.1805 11.2754 34.2285 13.9167 34.2285C18.0366 34.2285 18.3124 34.2411 18.8875 34.4558C19.586 34.7164 20.2828 35.3399 20.6479 36.0309C20.8643 36.4405 20.906 36.7161 20.942 37.9777C21.0276 40.9748 20.2135 43.0298 18.1908 44.9218C16.2282 46.7574 14.4475 47.3348 10.707 47.3486C9.20668 47.3541 8.77339 47.5244 8.20355 48.3328L7.86446 48.8138L7.82812 51.4453C7.78799 54.3533 7.83625 54.6812 8.39806 55.3195C9.02119 56.0275 9.40788 56.131 11.3758 56.1166C12.3261 56.1096 13.5049 56.0643 13.9954 56.0159Z" fill="#0795FE"/>
</svg>
