<svg width="34" height="28" viewBox="0 0 34 28" fill="none" xmlns="http://www.w3.org/2000/svg">
<path fill-rule="evenodd" clip-rule="evenodd" d="M14.6228 11.4268C14.1446 10.9533 13.4237 10.8118 12.7982 11.0678C12.1726 11.3252 11.7638 11.9302 11.7638 12.5996C11.7638 13.2704 12.1726 13.8754 12.7982 14.1328C13.4237 14.3888 14.1446 14.2472 14.6228 13.7738C15.2758 13.1245 15.2758 12.0761 14.6228 11.4268ZM9.48276 18.1818C6.06605 14.722 8.55094 8.86375 13.4397 8.86375C18.3284 8.86375 20.8147 14.7221 17.3966 18.1818C17.3981 16.6457 16.4923 15.2512 15.0822 14.6119C15.9447 13.9225 16.2741 12.7697 15.9057 11.7356C15.5359 10.7015 14.5477 10.0093 13.4396 10.0093C12.3315 10.0093 11.3434 10.7015 10.975 11.7356C10.6051 12.7697 10.9345 13.9225 11.7984 14.6119C10.387 15.2512 9.48276 16.6457 9.48276 18.1818ZM16.4576 18.9441C15.559 19.5205 14.5116 19.828 13.4396 19.828C12.3691 19.828 11.3202 19.5205 10.4216 18.9441V18.1717C10.4245 16.9646 11.1599 15.8791 12.2853 15.4171C13.4122 14.9566 14.7066 15.2111 15.5705 16.0621C16.4951 16.9775 16.4576 17.8342 16.4576 18.9441ZM17.1973 19.5577C15.0707 21.161 11.7943 21.1181 9.66028 19.5577C4.4825 15.7648 7.29389 7.94392 13.4293 7.94392C19.1763 7.94392 22.0729 14.8534 18.0046 18.881H18.0032C17.7533 19.1285 17.4846 19.3545 17.1971 19.559L17.1973 19.5577ZM25.2081 18.2905V18.2919C25.4248 19.1401 26.1962 19.7336 27.0789 19.7336C27.9631 19.7336 28.7346 19.1401 28.9513 18.2919L25.2081 18.2905ZM24.1433 8.95085H25.2528C25.2528 8.21856 25.3742 7.51915 24.935 7.09439V7.09582C24.503 6.67677 23.8125 6.67677 23.3805 7.09582C23.0786 7.41048 22.9905 7.87245 23.1595 8.27437C23.3271 8.67486 23.7186 8.94086 24.1578 8.95089L24.1433 8.95085ZM28.9513 7.85242V8.95085C29.6909 8.95085 30.3829 9.06813 30.8221 8.63191V8.63334C31.2454 8.20568 31.2454 7.52202 30.8221 7.09582C30.5043 6.7969 30.0391 6.7125 29.6346 6.87842C29.2301 7.04434 28.9628 7.4305 28.9513 7.86387V7.85242ZM29.8239 15.6286L24.3543 15.63C24.3543 16.2565 24.165 17.3506 25.0607 17.3506H29.129C29.3154 17.3506 29.4931 17.2777 29.6245 17.1461C29.9308 16.8129 29.8282 16.2636 29.8282 15.6272L29.8239 15.6286ZM26.1774 14.7218H28.0267V9.87771H26.1774V14.7218ZM24.3282 14.7218H25.2312L25.2297 9.87771C24.2271 9.87771 23.4253 10.0064 22.6957 9.28416H22.6972C22.3158 8.90802 22.1005 8.39596 22.1005 7.86249C22.1005 7.32901 22.3158 6.81696 22.6972 6.43939C23.2794 5.86729 24.1534 5.6971 24.9119 6.00888C25.6704 6.31924 26.1659 7.05155 26.1702 7.86391V8.96235H28.0194C28.0194 7.96977 27.8894 7.16883 28.6146 6.45081C29.4092 5.66562 30.6964 5.66562 31.4924 6.45081C32.0703 7.02863 32.2422 7.89251 31.9273 8.6434C31.6138 9.39429 30.8741 9.88628 30.0535 9.88914H28.944V14.7219H29.8354C30.12 11.8628 33.6666 11.6726 33.6666 7.18296C33.6666 1.3975 26.566 -1.51299 22.4341 2.57758V2.57615C21.2061 3.79615 20.517 5.44955 20.5185 7.17164C20.5185 11.6613 24.0536 11.84 24.3352 14.7106L24.3282 14.7218ZM20.1631 4.294C19.7817 5.20651 19.5881 6.18481 19.5939 7.17168C19.5939 10.1008 20.8811 11.401 22.005 12.5438C23.6578 14.2172 23.4324 14.5204 23.4324 16.6673V16.6659C23.4338 17.1836 23.6838 17.6699 24.1056 17.9731L23.2663 19.8038C23.1724 19.9426 23.1623 20.1214 23.2403 20.2687L24.1692 22.0779L21.2581 24.9742L19.4349 24.0546C19.2962 23.9816 19.1301 23.9816 18.9914 24.0546C18.1954 24.5008 17.3488 24.8498 16.469 25.0943C16.3043 25.1301 16.1699 25.2474 16.1179 25.4061L15.4895 27.3327H11.3909L10.7581 25.4061C10.7105 25.2588 10.5906 25.1444 10.4403 25.1029C9.55905 24.8598 8.711 24.5136 7.91499 24.0703C7.77341 23.9787 7.59427 23.9702 7.44404 24.0445L5.62083 24.9742L2.72567 22.1108L3.6546 20.3016H3.65316C3.72973 20.1671 3.72973 20.0027 3.65316 19.8668C3.19374 19.0716 2.83403 18.2248 2.58121 17.3438C2.54654 17.1822 2.42663 17.052 2.26627 17.0034L0.333252 16.377V12.3238L2.27925 11.6973H2.2778C2.42805 11.6501 2.54363 11.53 2.58552 11.3798C2.82968 10.5031 3.1793 9.65778 3.62714 8.86398C3.72105 8.72524 3.73116 8.54646 3.65315 8.39916L2.72422 6.59417L5.62082 3.73795L7.44403 4.65759C7.58272 4.73054 7.7503 4.73054 7.88898 4.65759C8.68643 4.20991 9.53592 3.85951 10.4186 3.61349C10.579 3.57774 10.7105 3.46046 10.7625 3.30599L11.3909 1.37944H15.488L16.1208 3.30599C16.1684 3.4533 16.2883 3.5663 16.4386 3.60634C16.8821 3.72935 17.3184 3.87666 17.7446 4.04971C19.5389 4.78485 18.821 4.97193 20.1631 4.294Z" fill="#0795FE"/>
</svg>
