<svg width="40" height="40" viewBox="0 0 40 40" fill="none" xmlns="http://www.w3.org/2000/svg">
<path fill-rule="evenodd" clip-rule="evenodd" d="M14.1376 35.8327H25.8604C26.0287 35.8327 26.1675 35.6935 26.1675 35.5248V32.8688C26.1675 30.7344 24.8817 28.8842 23.0461 28.0617C21.2849 29.5352 18.7161 29.5352 16.9546 28.0617C15.119 28.8842 13.8332 30.7318 13.8332 32.8688V35.5248C13.8346 35.6935 13.9694 35.8327 14.1376 35.8327ZM22.3396 16.5068L19.9992 15.1148L17.6589 16.5068L18.2562 13.8438L16.2117 12.0399L18.9223 11.7868L19.9993 9.28545L21.0762 11.791L23.7868 12.0441L21.7423 13.848L22.3396 16.5068ZM19.4944 4.67217C19.4944 4.39237 19.7215 4.16602 19.9992 4.16602C20.2782 4.16602 20.504 4.39379 20.504 4.67217V6.64485C20.504 6.92466 20.2768 7.15101 19.9992 7.15101C19.7201 7.15101 19.4944 6.92323 19.4944 6.64485V4.67217ZM28.644 12.8343C28.9231 12.8343 29.1488 13.0621 29.1488 13.3405C29.1488 13.6203 28.9217 13.8466 28.644 13.8466H26.6766C26.3976 13.8466 26.1719 13.6188 26.1719 13.3405C26.1719 13.0607 26.399 12.8343 26.6766 12.8343H28.644ZM25.754 6.85452C25.9517 6.65627 26.27 6.65627 26.4677 6.85452C26.6654 7.05277 26.6654 7.37195 26.4677 7.5702L25.0753 8.9664C24.8776 9.16465 24.5592 9.16465 24.3615 8.9664C24.1638 8.76815 24.1638 8.44898 24.3615 8.25072L25.754 6.85452ZM11.3543 13.8468C11.0752 13.8468 10.8495 13.6191 10.8495 13.3407C10.8495 13.0609 11.0766 12.8345 11.3543 12.8345H13.3216C13.6007 12.8345 13.8264 13.0623 13.8264 13.3407C13.8264 13.6205 13.5993 13.8468 13.3216 13.8468H11.3543ZM13.5306 7.5701C13.3328 7.37184 13.3328 7.05267 13.5306 6.85441C13.7283 6.65616 14.0466 6.65616 14.2443 6.85441L15.6368 8.25061C15.8345 8.44886 15.8345 8.76803 15.6368 8.96629C15.439 9.16454 15.1207 9.16454 14.923 8.96629L13.5306 7.5701ZM19.9994 20.7995C22.0509 20.7995 23.7141 22.4446 23.7141 24.4764C23.7141 26.5082 22.051 28.1532 19.9994 28.1532C17.9477 28.1532 16.2846 26.5082 16.2846 24.4764C16.2846 22.4461 17.9477 20.7995 19.9994 20.7995ZM30.498 17.8947C32.5495 17.8947 34.2128 19.5397 34.2128 21.5715C34.2128 23.6032 32.5497 25.2484 30.498 25.2484C28.4464 25.2484 26.7833 23.6033 26.7833 21.5715C26.7861 19.5398 28.4492 17.8947 30.498 17.8947ZM9.50067 17.8947C11.5522 17.8947 13.2154 19.5397 13.2154 21.5715C13.2154 23.6032 11.5523 25.2484 9.50067 25.2484C7.44904 25.2484 5.78596 23.6033 5.78596 21.5715C5.78596 19.5398 7.44904 17.8947 9.50067 17.8947ZM27.1746 32.9239C27.1746 30.8739 26.2547 29.0897 24.7501 27.9141C25.2704 26.6881 26.2449 25.6954 27.4537 25.1555C29.2149 26.6318 31.7837 26.6318 33.5452 25.1555C35.3807 25.978 36.6666 27.8255 36.6666 29.9625V32.6185C36.6666 32.7873 36.5278 32.9265 36.3595 32.9265L27.1747 32.9279L27.1746 32.9239ZM3.64035 32.9239C3.47208 32.9239 3.33325 32.7847 3.33325 32.6159V29.9599C3.33325 27.8256 4.61911 25.9753 6.45468 25.1528C8.2159 26.6264 10.7847 26.6264 12.5462 25.1528C13.7591 25.697 14.7295 26.6882 15.2526 27.9115C13.7437 29.0869 12.8281 30.8712 12.8281 32.9212H3.64036L3.64035 32.9239Z" fill="#0795FE"/>
</svg>
