<svg width="30" height="30" viewBox="0 0 30 30" fill="none" xmlns="http://www.w3.org/2000/svg">
<path fill-rule="evenodd" clip-rule="evenodd" d="M25.6069 4.3931C19.749 -1.46437 10.2517 -1.46437 4.39346 4.3931C-1.46449 10.2506 -1.46449 19.747 4.39346 25.6048C9.05341 30.2644 16.2307 31.3426 22.0443 28.2452C22.6914 27.9002 23.2604 27.6776 23.9349 28.0968C25.6289 28.9079 26.2291 29.1904 29.0235 29.5654C27.3933 27.8142 26.1277 25.1231 26.836 24.2155C31.474 18.2761 30.97 9.75727 25.6069 4.3931ZM15.0004 4.66781C21.0523 4.66781 24.8986 11.1189 22.0993 16.4257C20.973 18.5609 19.542 19.1677 19.3871 19.4619C19.223 19.7731 19.6332 20.7938 18.697 21.7299L18.6983 21.7313C18.3012 22.1283 17.7517 22.3757 17.1462 22.3757L12.8533 22.377C11.6437 22.377 10.6567 21.3875 10.6567 20.1806C10.6567 19.7666 10.727 19.4854 10.4718 19.3109C6.33784 16.4791 5.76485 10.58 9.32728 7.0177C10.7791 5.566 12.784 4.66781 15.0004 4.66781ZM13.2035 25.3299C12.0421 25.3299 12.0421 23.5657 13.2035 23.5657H16.7958C17.9573 23.5657 17.9573 25.3299 16.7958 25.3299H13.2035ZM16.5511 11.1605L15.0004 12.1253L13.4496 11.1605C12.4653 10.5473 11.5343 12.0433 12.5186 12.6565L14.1176 13.6512V20.6129H12.8533C11.9015 20.6129 13.0876 18.9685 11.464 17.8567C9.76867 16.6953 8.74132 14.7814 8.74132 12.6905C8.74132 7.13365 15.4926 4.33324 19.4249 8.26522C22.1983 11.0384 21.7634 15.6435 18.5356 17.8553C17.141 18.811 17.8168 20.1182 17.4522 20.4866L17.4509 20.4853C17.3728 20.5634 17.2647 20.6129 17.1462 20.6129H15.8819L15.8832 13.6512L17.4822 12.6565C18.4665 12.0446 17.5355 10.5486 16.5511 11.1605Z" fill="#0795FE"/>
</svg>
